<svg xmlns="http://www.w3.org/2000/svg" width="348.925" height="68.206" viewBox="0 0 348.925 68.206">
  <g id="_6.4a09306c" data-name="6.4a09306c" opacity="0.6">
    <g id="Group_46" data-name="Group 46" transform="translate(0 0)">
      <path id="Path_125" data-name="Path 125" d="M41.813,38.819c-.1,0-.313.106-.313.212a1.375,1.375,0,0,0-.261.636,19.419,19.419,0,0,1-1.773,4.77,16.776,16.776,0,0,1-2.555,3.816,9.82,9.82,0,0,1-4.642,2.915,10.143,10.143,0,0,1-3.077.53c-4.016.053-8.083,0-12.1,0-.157,0-.313-.053-.521-.053V8.876a.283.283,0,0,1,.078-.238.274.274,0,0,1,.235-.079h6.727v-.9H3.222v.9H10.21V51.75H3.274V52.6H42.126V39.19a.346.346,0,0,0-.079-.253.335.335,0,0,0-.1-.083A.325.325,0,0,0,41.813,38.819Z" transform="translate(-3.222 4.005)" fill="#082f33"/>
      <path id="Path_126" data-name="Path 126" d="M31.551.959h-1.46V69.165h1.46Z" transform="translate(16.688 -0.959)" fill="#082f33"/>
      <path id="Path_127" data-name="Path 127" d="M63.874,25.054c-.157-.53-.261-1.06-.365-1.59a22.186,22.186,0,0,0-3.233-6.836,19.885,19.885,0,0,0-3.025-3.286,23.728,23.728,0,0,0-3.338-2.332,22.305,22.305,0,0,0-4.12-1.855,19.728,19.728,0,0,0-3.755-1.007c-.991-.159-2.034-.318-2.972-.371-.678-.053-1.356-.106-2.034-.106-1.1-.053-2.243-.106-3.338-.106-.678,0-1.408.053-2.034.106s-1.2.053-1.825.106c.1.795.1.848.834.848.834,0,1.669-.106,2.5-.106a35.349,35.349,0,0,1,5.789.318c.887.212,1.773.318,2.66.583A18.386,18.386,0,0,1,48.8,10.745a14.9,14.9,0,0,1,3.233,2.438,15.626,15.626,0,0,1,3.233,5.035,25.046,25.046,0,0,1,1.564,6.413c0,.212.052.795.052.795a59.12,59.12,0,0,1,.1,8.8s-.052.318-.052.424c-.156,1.166-.313,2.332-.522,3.5a20.066,20.066,0,0,1-1.356,4.24c-.417.9-.887,1.8-1.356,2.7a12.505,12.505,0,0,1-3.357,4,12.271,12.271,0,0,1-4.674,2.253,26.12,26.12,0,0,1-4.485.636c-1.46.106-2.92.053-4.381.053H34.3c-.261.583-.209.689.417.742a9.949,9.949,0,0,0,1.252.106c2.712.053,5.424.106,8.136-.106a29.982,29.982,0,0,0,3.807-.583,18.747,18.747,0,0,0,4.694-1.8A34.79,34.79,0,0,0,56.1,48.213a19.26,19.26,0,0,0,4.276-4.24,25.109,25.109,0,0,0,2.555-4.452,25.5,25.5,0,0,0,1.356-4.717,3.32,3.32,0,0,0,.052-.477,33.241,33.241,0,0,0-.209-8.851.636.636,0,0,1-.173-.185A.646.646,0,0,1,63.874,25.054Z" transform="translate(19.463 3.936)" fill="#082f33"/>
    </g>
    <path id="Path_128" data-name="Path 128" d="M104.215,11.207l.832,11.692h-.832Q102.55,17.64,99.5,15.332a11.634,11.634,0,0,0-7.292-2.308A12.631,12.631,0,0,0,87.1,14.045a10.386,10.386,0,0,0-4.042,3.065,15.426,15.426,0,0,0-2.615,5.222,25.715,25.715,0,0,0-.951,7.416,20.943,20.943,0,0,0,.872,6.243A14.029,14.029,0,0,0,82.974,40.8a12.08,12.08,0,0,0,4.24,3.065,14.6,14.6,0,0,0,5.746,1.06,13.233,13.233,0,0,0,6.182-1.438q2.655-1.324,5.9-5.676l.832.492a18.862,18.862,0,0,1-6.34,6.735,16.468,16.468,0,0,1-8.56,2.119,18.792,18.792,0,0,1-7.054-1.286,16.572,16.572,0,0,1-5.548-3.594,17.094,17.094,0,0,1-3.606-5.524,18.515,18.515,0,0,1-1.308-7.038A18.883,18.883,0,0,1,75.88,20.25a16.612,16.612,0,0,1,6.618-6.66,18.747,18.747,0,0,1,9.273-2.384,17.514,17.514,0,0,1,7.688,1.816,4.224,4.224,0,0,0,1.585.567,1.757,1.757,0,0,0,1.427-.681,3.874,3.874,0,0,0,.832-1.7Z" transform="translate(48.827 6.635)" fill="#082f33"/>
    <path id="Path_129" data-name="Path 129" d="M117.876,34.855H103.926l-2.457,5.411a8.535,8.535,0,0,0-.872,2.989,2.287,2.287,0,0,0,.119.757,1.689,1.689,0,0,0,.594.643,6.131,6.131,0,0,0,1.268.492,13.626,13.626,0,0,0,2.18.265v.946H93.425v-.946a8.067,8.067,0,0,0,2.18-.567,4.4,4.4,0,0,0,1.427-1.022,6.989,6.989,0,0,0,1.07-1.74q.515-1.059,1.228-2.611L112.01,11.207h.912l12.521,28.567a26.879,26.879,0,0,0,1.388,2.876,8.008,8.008,0,0,0,1.348,1.665,4.048,4.048,0,0,0,1.506.833,8.678,8.678,0,0,0,1.981.265v.946H117.439v-.946a5.475,5.475,0,0,0,2.894-.643,1.77,1.77,0,0,0,.792-1.438,11.917,11.917,0,0,0-1.069-3.557Zm-.754-1.892-6.1-13.886-6.261,13.886Z" transform="translate(63.619 6.635)" fill="#082f33"/>
    <path id="Path_130" data-name="Path 130" d="M126.5,29.955v9.989q0,3.292.752,4.048a3.99,3.99,0,0,0,3.052,1.1h1.388v.946H116.277V45.09h1.348a3.706,3.706,0,0,0,3.25-1.4,7.963,7.963,0,0,0,.554-3.746V17.734q0-3.216-.712-4.011a4.047,4.047,0,0,0-3.092-1.135h-1.348v-.946h13.2a23.962,23.962,0,0,1,7.608.984,9.766,9.766,0,0,1,2.577,1.286,8.341,8.341,0,0,1,2.1,1.93,8.551,8.551,0,0,1,1.428,2.46,7.909,7.909,0,0,1,.515,2.875A9.5,9.5,0,0,1,142.947,25a8.287,8.287,0,0,1-2.18,2.989,10.448,10.448,0,0,1-3.487,1.968,15.011,15.011,0,0,1-4.716.681A32.22,32.22,0,0,1,126.5,29.955Zm0-1.476q1.426.265,2.5.416a17.951,17.951,0,0,0,1.863.114,6.532,6.532,0,0,0,2.615-.53,7.05,7.05,0,0,0,2.14-1.513,6.78,6.78,0,0,0,1.466-2.346,7.73,7.73,0,0,0,.555-2.951,8.974,8.974,0,0,0-.594-3.367,7.316,7.316,0,0,0-1.626-2.5A6.869,6.869,0,0,0,133,14.253a8.375,8.375,0,0,0-3.012-.53,17.56,17.56,0,0,0-3.487.454Z" transform="translate(80.552 6.957)" fill="#082f33"/>
    <path id="Path_131" data-name="Path 131" d="M149.334,45.09v.946H133.919V45.09h1.267a10.712,10.712,0,0,0,1.664-.113,2.284,2.284,0,0,0,1.227-.643,3.5,3.5,0,0,0,.716-1.551,11.657,11.657,0,0,0,.275-2.838V17.734a18.872,18.872,0,0,0-.078-1.93,5.189,5.189,0,0,0-.2-1.286,1.505,1.505,0,0,0-.4-.757,2.967,2.967,0,0,0-.752-.568,5.352,5.352,0,0,0-2.457-.605h-1.267v-.946h15.415v.946h-1.267a8.706,8.706,0,0,0-1.706.151,2.155,2.155,0,0,0-1.187.681,3.488,3.488,0,0,0-.754,1.551,12.835,12.835,0,0,0-.237,2.762v22.21c0,.807.014,1.463.038,1.968a5.127,5.127,0,0,0,.2,1.249,2.11,2.11,0,0,0,.437.795,5.2,5.2,0,0,0,.792.53,4.969,4.969,0,0,0,2.418.605Z" transform="translate(93.625 6.957)" fill="#082f33"/>
    <path id="Path_132" data-name="Path 132" d="M174.326,11.642v8.1h-.6q-.434-3.254-2.021-4.578a6.764,6.764,0,0,0-4.6-1.362h-5.073V40.1a12.579,12.579,0,0,0,.24,2.762,3.422,3.422,0,0,0,.754,1.476,2.254,2.254,0,0,0,1.187.643,10.713,10.713,0,0,0,1.664.113h1.227v.946H151.856V45.09h1.269a8.082,8.082,0,0,0,1.663-.151,2.26,2.26,0,0,0,1.189-.643,3.468,3.468,0,0,0,.716-1.513,10.337,10.337,0,0,0,.275-2.687V13.8h-4.319a14.248,14.248,0,0,0-2.894.265,5.046,5.046,0,0,0-2.138.908,4.527,4.527,0,0,0-1.466,1.816,8.6,8.6,0,0,0-.635,2.951h-.991v-8.1Z" transform="translate(101.484 6.957)" fill="#082f33"/>
    <path id="Path_133" data-name="Path 133" d="M187.344,34.855H173.395l-2.457,5.411a8.53,8.53,0,0,0-.872,2.989,2.31,2.31,0,0,0,.118.757,1.7,1.7,0,0,0,.594.643,6.17,6.17,0,0,0,1.267.492,13.688,13.688,0,0,0,2.181.265v.946H162.9v-.946a8.077,8.077,0,0,0,2.178-.567,4.4,4.4,0,0,0,1.428-1.022,7.114,7.114,0,0,0,1.071-1.74q.512-1.059,1.226-2.611l12.681-28.264h.911l12.525,28.567A26.578,26.578,0,0,0,196.3,42.65a8.063,8.063,0,0,0,1.348,1.665,4.049,4.049,0,0,0,1.506.833,8.681,8.681,0,0,0,1.983.265v.946H186.909v-.946a5.472,5.472,0,0,0,2.892-.643,1.767,1.767,0,0,0,.794-1.438,11.971,11.971,0,0,0-1.069-3.557Zm-.752-1.892-6.1-13.886-6.261,13.886Z" transform="translate(115.096 6.635)" fill="#082f33"/>
    <path id="Path_134" data-name="Path 134" d="M215.956,36.539l.872.151-3.092,9.346h-27.9V45.09h1.386a3.772,3.772,0,0,0,3.252-1.4,7.97,7.97,0,0,0,.552-3.746V17.734q0-3.178-.75-4.011a3.92,3.92,0,0,0-3.054-1.135h-1.386v-.946h16.325v.946a16.679,16.679,0,0,0-2.457.151,6.02,6.02,0,0,0-1.584.378,2.759,2.759,0,0,0-.991.568,3.247,3.247,0,0,0-.594.757,11.1,11.1,0,0,0-.4,3.9V39.944a8.5,8.5,0,0,0,.277,2.573,1.735,1.735,0,0,0,1.109,1.1,20.719,20.719,0,0,0,4.161.227H204.3a20.407,20.407,0,0,0,5.825-.568,6.454,6.454,0,0,0,1.584-.756,7.475,7.475,0,0,0,1.466-1.287,12.238,12.238,0,0,0,1.389-1.93A25.627,25.627,0,0,0,215.956,36.539Z" transform="translate(132.097 6.957)" fill="#082f33"/>
  </g>
</svg>
