<svg xmlns="http://www.w3.org/2000/svg" width="321" height="83.908" viewBox="0 0 321 83.908">
  <g id="_5.b91a4d59" data-name="5.b91a4d59" opacity="0.6">
    <path id="Path_99" data-name="Path 99" d="M7.336,19.294C12.354,12.96,17.36,6.639,22.427.236,27.455,6.624,32.437,12.95,37.437,19.3l-4.615,7.178q-4.1,6.384-8.217,12.759a.989.989,0,0,0-.087,1c1.315,3.54,2.607,7.066,3.928,10.657-.48.272-.955.545-1.434.806-1.39.763-2.78,1.534-4.18,2.269a.922.922,0,0,1-.731.041c-1.912-1-3.807-2.035-5.776-3.1.288-.816.57-1.624.86-2.429.993-2.728,1.958-5.459,2.965-8.177a1.2,1.2,0,0,0-.149-1.2q-6.043-9.42-12.059-18.857C7.745,19.949,7.552,19.638,7.336,19.294Z" transform="translate(5.332 -0.236)" fill="#082f33"/>
    <path id="Path_100" data-name="Path 100" d="M1.108,40.918l18.61-16.761V59.72Z" transform="translate(-1.024 24.176)" fill="#082f33"/>
    <path id="Path_101" data-name="Path 101" d="M19.242,24.153,37.775,40.923,19.242,59.737Z" transform="translate(17.483 24.171)" fill="#082f33"/>
    <path id="Path_102" data-name="Path 102" d="M38.4,22.272l-4.567,2.2c-1.656.787-3.272,1.7-4.984,2.348a25.827,25.827,0,0,1-4.134,1c-2.685.535-5.377,1.019-8.07,1.522a1.838,1.838,0,0,1-.3-.012L28.788,10.06Z" transform="translate(14.521 9.789)" fill="#082f33"/>
    <path id="Path_103" data-name="Path 103" d="M11.875,10.062,24.367,29.391,20.7,28.7c-2.284-.434-4.585-.786-6.845-1.329A20.716,20.716,0,0,1,10.2,25.989c-2.413-1.084-4.792-2.234-7.184-3.359-.222-.1-.437-.228-.739-.393Z" transform="translate(0.166 9.792)" fill="#082f33"/>
    <path id="Path_104" data-name="Path 104" d="M36.907,39.679l-16.936-15.4.038-.13c1.021.163,2.045.317,3.066.488q4.766.808,9.531,1.622c1.162.2,1.213.23,1.489,1.351q1.44,5.817,2.873,11.632c.028.108.036.22.054.332Z" transform="translate(18.226 24.172)" fill="#082f33"/>
    <path id="Path_105" data-name="Path 105" d="M1.066,39.853c.854-3.282,1.658-6.369,2.462-9.457.294-1.125.564-2.258.907-3.369a1.059,1.059,0,0,1,.639-.653c4.257-.757,8.521-1.473,12.784-2.2a3.727,3.727,0,0,1,.451,0C12.544,29.417,6.887,34.559,1.066,39.853Z" transform="translate(-1.066 24.19)" fill="#082f33"/>
    <path id="Path_106" data-name="Path 106" d="M23.018.515,9,18.429c-1.255-1.906-2.476-3.762-3.731-5.666Q14.08,6.6,22.942.4Z" transform="translate(3.223 -0.07)" fill="#082f33"/>
    <path id="Path_107" data-name="Path 107" d="M33.233,12.8l-3.7,5.628L15.511.508,15.594.4Z" transform="translate(13.675 -0.067)" fill="#082f33"/>
    <path id="Path_108" data-name="Path 108" d="M2.168,24.292,8.008,6.926a3.386,3.386,0,0,1,.254.285C9.3,8.8,10.345,10.389,11.36,12a.758.758,0,0,1,.014.688Q6.916,18.412,2.422,24.1A2.02,2.02,0,0,1,2.168,24.292Z" transform="translate(0.058 6.59)" fill="#082f33"/>
    <path id="Path_109" data-name="Path 109" d="M26.281,6.892C28.225,12.76,30.117,18.476,32.01,24.2l-.079.059c-.135-.155-.278-.3-.4-.466-2.8-3.6-5.6-7.2-8.417-10.784a.832.832,0,0,1-.058-1.18C24.132,10.231,25.159,8.614,26.281,6.892Z" transform="translate(21.154 6.556)" fill="#082f33"/>
    <path id="Path_110" data-name="Path 110" d="M30.695,16.817v12.3l-6.156-1.151c2.037-3.78,4.039-7.489,6.041-11.2Z" transform="translate(22.889 16.641)" fill="#082f33"/>
    <path id="Path_111" data-name="Path 111" d="M8.055,27.984,1.977,29.134V16.826l.111-.059Z" transform="translate(-0.138 16.634)" fill="#082f33"/>
    <path id="Path_112" data-name="Path 112" d="M25.045,27.743c-.538-1.966-1.03-3.736-1.5-5.524-.157-.59-.51-1.3-.312-1.75.183-.417.983-.576,1.521-.832q2.825-1.351,5.661-2.689c.159-.075.326-.132.7-.281Z" transform="translate(21.494 16.532)" fill="#082f33"/>
    <path id="Path_113" data-name="Path 113" d="M8.428,27.711,2.48,16.7a3.792,3.792,0,0,1,.528.145c2.3,1.1,4.6,2.2,6.906,3.29.347.163.492.33.381.724C9.679,23.084,9.081,25.308,8.428,27.711Z" transform="translate(0.377 16.564)" fill="#082f33"/>
    <path id="Path_114" data-name="Path 114" d="M3.514,26.8c1.338-1.376,2.675-2.753,4.025-4.13a.6.6,0,0,1,.228-.113.6.6,0,0,1,.255-.009c2.7.761,5.387,1.54,8.08,2.437L3.575,26.949Z" transform="translate(1.431 22.522)" fill="#082f33"/>
    <path id="Path_115" data-name="Path 115" d="M32.357,26.948,19.8,24.96c.288-.11.437-.179.6-.224,2.383-.708,4.766-1.4,7.139-2.126a.875.875,0,0,1,1.031.24c1.275,1.337,2.581,2.645,3.88,3.965Z" transform="translate(18.051 22.526)" fill="#082f33"/>
    <path id="Path_116" data-name="Path 116" d="M3.332,26.694q-.6-1.314-1.328-2.9l5.256-1Z" transform="translate(-0.11 22.785)" fill="#082f33"/>
    <path id="Path_117" data-name="Path 117" d="M28.936,26.812l-4.073-4.03,5.362,1.028Z" transform="translate(23.22 22.773)" fill="#082f33"/>
    <path id="Path_118" data-name="Path 118" d="M39.742,36.642l4.919-.869c.141.643.28,1.3.433,1.966.794,3.443,4.532,4.533,6.984,3.75a5.434,5.434,0,0,0,3.376-7.056,5.911,5.911,0,0,0-3.2-3.062c-1.486-.71-3.06-1.241-4.525-1.986a19.1,19.1,0,0,1-3.773-2.313,7.728,7.728,0,0,1,.067-11.8,10.176,10.176,0,0,1,15.767,2.95l-3.848,2.26c-.48-.566-.905-1.137-1.4-1.64a5.445,5.445,0,0,0-7.57.22,3.266,3.266,0,0,0,.137,4.6,11.108,11.108,0,0,0,2.673,1.63c1.283.59,2.653,1,3.948,1.573,2.967,1.32,5.689,3.025,6.606,6.318a9.979,9.979,0,0,1-9.505,13c-5.606.181-9.46-2.743-10.84-8.11-.074-.281-.169-.555-.254-.832Z" transform="translate(38.392 12.51)" fill="#082f33"/>
    <path id="Path_119" data-name="Path 119" d="M63.5,32.438V45.417a19.662,19.662,0,0,1-2.542.067c-.814.014-1.589,0-2.309,0a1.263,1.263,0,0,1-.139-.124.318.318,0,0,1-.047-.081.266.266,0,0,1-.026-.095q0-15.663-.014-31.329c0-.2.018-.393.032-.663a5.818,5.818,0,0,1,.757-.106c2.085-.016,4.17-.091,6.257,0a28.242,28.242,0,0,1,4.617.562,8.373,8.373,0,0,1,5.4,4.148c1.986,3.182,1.831,8.737-1.525,11.732A11.056,11.056,0,0,1,68.415,32.2a31.4,31.4,0,0,1-3.554.238C64.442,32.458,64.018,32.438,63.5,32.438Zm.065-4.6a14.987,14.987,0,0,0,5.477-.566,4.211,4.211,0,0,0,2.994-3.343,7.54,7.54,0,0,0,.087-1.654,4.1,4.1,0,0,0-2.506-3.793c-1.916-.912-3.951-.842-6.052-.769Z" transform="translate(57.467 12.834)" fill="#082f33"/>
    <path id="Path_120" data-name="Path 120" d="M141.688,12.174c.521.708,15.247,33.128,15.512,34.143-.166.016-.327.043-.485.043H151.99c-3.607-7.67-6.823-15.463-10.325-23.313-.77,1.322-1.271,2.647-1.889,3.911S138.586,29.5,138,30.773s-1.206,2.606-1.812,3.908-1.222,2.6-1.829,3.9c-.594,1.271-1.176,2.547-1.77,3.817s-1.22,2.59-1.841,3.911H125.5a5.455,5.455,0,0,1,.218-.663q3.358-7.079,6.734-14.139,4.367-9.191,8.737-18.385C141.348,12.809,141.518,12.5,141.688,12.174Z" transform="translate(125.927 11.947)" fill="#082f33"/>
    <path id="Path_121" data-name="Path 121" d="M100.13,32.352V45.358H95.14V13.251c.092-.053.147-.114.2-.114a60.551,60.551,0,0,1,9.812.273,9.465,9.465,0,0,1,6.256,3.237c3.821,4.639,2.061,13.077-4.6,14.922-.095.025-.188.057-.451.138,3.316,4.555,6.656,9.019,10.018,13.62a5.691,5.691,0,0,1-.727.1c-1.491,0-2.976-.032-4.469.022a1.431,1.431,0,0,1-1.364-.737c-2.782-3.967-5.607-7.913-8.408-11.87C101.111,32.43,100.845,32.013,100.13,32.352Zm.047-4.48a16.585,16.585,0,0,0,4.744-.354c3.44-.9,4.081-3.668,3.65-6a3.769,3.769,0,0,0-1.873-2.739c-2.038-1.158-4.264-1.113-6.521-1.024Z" transform="translate(94.94 12.863)" fill="#082f33"/>
    <path id="Path_122" data-name="Path 122" d="M120.854,17.736h-7.5l-3.445-4.586c.762-.138,25.932-.143,26.849,0-.259.37-.5.73-.754,1.072q-1.191,1.572-2.382,3.134a.942.942,0,0,1-.832.393c-1.984-.022-3.97-.01-5.955-.01h-1.051V45.492H120.85Z" transform="translate(110.015 12.836)" fill="#082f33"/>
    <path id="Path_123" data-name="Path 123" d="M103.223,46.321H97.812C94.436,38.6,91.061,30.888,87.629,23.045c-1.088,1.98-1.888,3.968-2.816,5.9s-1.8,3.835-2.691,5.756-1.8,3.9-2.709,5.852c-.891,1.918-1.787,3.831-2.7,5.768h-5.24a4.391,4.391,0,0,1,.169-.578q2.185-4.639,4.39-9.278,4.369-9.243,8.713-18.485,1.293-2.741,2.581-5.479a2.99,2.99,0,0,1,.2-.325C88.082,12.752,102.564,44.754,103.223,46.321Z" transform="translate(70.788 11.949)" fill="#082f33"/>
    <path id="Path_124" data-name="Path 124" d="M150.567,46.386h-4.823V12.037l23.83,24.54V14.269h4.841v34.11L150.567,23.814Z" transform="translate(146.584 11.807)" fill="#082f33"/>
  </g>
</svg>
