<svg xmlns="http://www.w3.org/2000/svg" width="330.482" height="49.355" viewBox="0 0 330.482 49.355">
  <g id="_1.080aec8a" data-name="1.080aec8a" opacity="0.6">
    <g id="Group_43" data-name="Group 43" transform="translate(0 0)">
      <path id="Path_67" data-name="Path 67" d="M127.847,37.726a22.478,22.478,0,0,1-1.654,4.023c-.215.431-.431.79-.646,1.221a6.606,6.606,0,0,1-5.321,2.8,6.422,6.422,0,0,1-4.891-2.227l-.215-.215a6.535,6.535,0,0,0-4.89-2.227,7.956,7.956,0,0,0-1.366.144V54.681a23.637,23.637,0,0,1-4.531.431,24.678,24.678,0,0,1-.071-49.355,25.826,25.826,0,0,1,7.478,1.149l-7.334,7.328,4.458,4.454,15.676,15.662.646.647Z" transform="translate(48.612 -5.756)" fill="#082f33"/>
      <path id="Path_68" data-name="Path 68" d="M.428,34.1l2.3-1.149c1.222,2.8,4.027,4.311,7.622,4.311,3.883,0,6.831-2.012,6.831-5.46,0-3.736-3.38-4.454-7.047-5.244-4.242-.934-9.06-2.155-9.06-7.759,0-4.382,4.1-7.759,8.988-7.759,4.027,0,7.694,1.94,9.2,5.6l-2.229,1.149a7.3,7.3,0,0,0-7.047-4.239c-3.308,0-6.184,2.155-6.184,5.1,0,3.736,3.452,4.454,7.191,5.244,4.242.934,8.988,2.155,8.988,7.831-.144,4.957-4.315,8.118-9.636,8.118C5.893,39.847,2.01,37.835.428,34.1Z" transform="translate(-0.428 -2.487)" fill="#082f33"/>
      <path id="Path_69" data-name="Path 69" d="M15.4,39.395V11.3h2.66v12.86H34.739V11.3H37.4v28.09H34.739V26.607H18.057V39.323H15.4Z" transform="translate(8.836 -2.322)" fill="#082f33"/>
      <path id="Path_70" data-name="Path 70" d="M35.911,11.3v28.09h-2.66V11.3Z" transform="translate(19.885 -2.322)" fill="#082f33"/>
      <path id="Path_71" data-name="Path 71" d="M37.873,39.586l4.027-25.5a3.5,3.5,0,0,1,3.6-3.089,3.441,3.441,0,0,1,3.523,2.586l6.04,21.337c.144.647.288.862.647.862s.5-.287.647-.862l6.04-21.265a3.6,3.6,0,0,1,7.047.5l3.667,25.288H70.447L67,14.872c-.144-.934-.359-1.509-1.151-1.509-.575,0-1.006.5-1.222,1.365L58.367,36.137a2.78,2.78,0,0,1-5.321.072L46.79,14.656c-.288-.862-.575-1.293-1.15-1.293s-1.079.5-1.222,1.509L40.606,39.514H37.873Z" transform="translate(22.746 -2.516)" fill="#082f33"/>
      <path id="Path_72" data-name="Path 72" d="M68.832,14.415a4.442,4.442,0,0,1,4.53-3.376,4.5,4.5,0,0,1,4.53,3.376L85.8,39.559H83.07L80.7,31.728,66.172,31.8l-2.517,7.759H60.923Zm-2.013,14.8H79.834L75.52,15.2a2.137,2.137,0,0,0-2.157-1.724A2.087,2.087,0,0,0,71.205,15.2Z" transform="translate(37.011 -2.487)" fill="#082f33"/>
      <path id="Path_73" data-name="Path 73" d="M112.806,25.478a14.223,14.223,0,0,1,14.021-14.44,12.659,12.659,0,0,1,11.146,6.25l-2.156,1.293a10.478,10.478,0,0,0-8.99-5.029c-6.113,0-11.217,5.244-11.217,11.926,0,6.753,5.035,12,11.217,12a10.414,10.414,0,0,0,8.99-4.957l2.156,1.293a12.659,12.659,0,0,1-11.146,6.25A14.349,14.349,0,0,1,112.806,25.478Z" transform="translate(69.119 -2.487)" fill="#082f33"/>
      <path id="Path_74" data-name="Path 74" d="M136.349,14.415a4.727,4.727,0,0,1,9.059,0l7.91,25.145h-2.731l-2.373-7.831-14.526.072-2.517,7.759h-2.731Zm-2.012,14.8h13.014L143.036,15.2a2.139,2.139,0,0,0-2.158-1.724,2.086,2.086,0,0,0-2.156,1.724Z" transform="translate(78.794 -2.487)" fill="#082f33"/>
      <path id="Path_75" data-name="Path 75" d="M146.3,39.395V11.3h8.125c7.189,0,12.082,3.161,12.082,9.7,0,6.753-5.108,9.771-12.01,9.771h-5.536v8.693H146.3Zm2.66-25.576V28.187h5.465c5.177,0,9.274-2.083,9.274-7.256,0-4.957-3.811-7.184-9.274-7.184h-5.465Z" transform="translate(89.846 -2.322)" fill="#082f33"/>
      <path id="Path_76" data-name="Path 76" d="M163.745,11.3v28.09h-2.66V11.3Z" transform="translate(98.997 -2.322)" fill="#082f33"/>
      <path id="Path_77" data-name="Path 77" d="M184.983,13.819H176V39.395h-2.661V13.819h-8.917V11.3h20.564Z" transform="translate(101.061 -2.322)" fill="#082f33"/>
      <path id="Path_78" data-name="Path 78" d="M183.924,14.415a4.726,4.726,0,0,1,9.059,0l7.91,25.145h-2.8l-2.372-7.831L181.19,31.8l-2.443,7.831h-2.734Zm-2.014,14.8h13.014L190.61,15.2a2.137,2.137,0,0,0-2.156-1.724,2.09,2.09,0,0,0-2.16,1.724Z" transform="translate(108.236 -2.487)" fill="#082f33"/>
      <path id="Path_79" data-name="Path 79" d="M196.527,36.88H211.2v2.514h-14.67c-2.014,0-2.661-1.006-2.661-2.658V11.3h2.661Z" transform="translate(119.284 -2.322)" fill="#082f33"/>
    </g>
  </g>
</svg>
