<svg xmlns="http://www.w3.org/2000/svg" width="261.227" height="68.17" viewBox="0 0 261.227 68.17">
  <g id="_7.028af738" data-name="7.028af738" opacity="0.6">
    <path id="Path_135" data-name="Path 135" d="M21.795,32.961V19.693L1.65,9.539V22.395Z" transform="translate(-1.65 4.94)" fill="#082f33"/>
    <path id="Path_136" data-name="Path 136" d="M1.924,24.111l.157,12.553L31.752,52.873V40.162Z" transform="translate(-1.456 15.295)" fill="#082f33"/>
    <path id="Path_137" data-name="Path 137" d="M19.344,1.075V13.709l30.522,15V15.551Z" transform="translate(10.923 -1.075)" fill="#082f33"/>
    <path id="Path_138" data-name="Path 138" d="M1.65,15.551,31.915,1.075V13.709L14.528,22.065Z" transform="translate(-1.65 -1.075)" fill="#082f33"/>
    <path id="Path_139" data-name="Path 139" d="M19.375,40.133l-.031,12.711L49.09,36.789V24.155Z" transform="translate(10.923 15.326)" fill="#082f33"/>
    <path id="Path_140" data-name="Path 140" d="M33.165,34.725l-8.051-4.1V18.258L44.99,28.347Z" transform="translate(15.024 11.136)" fill="#082f33"/>
    <path id="Path_141" data-name="Path 141" d="M64.385,12.279h6.442V37.926a12.123,12.123,0,0,1-1.468,6.066,9.841,9.841,0,0,1-4.054,3.9,12.845,12.845,0,0,1-6.05,1.364,13.472,13.472,0,0,1-5.662-1.15,9.2,9.2,0,0,1-3.984-3.414,10.141,10.141,0,0,1-1.468-5.629H54.59a5.108,5.108,0,0,0,.639,2.548,4.18,4.18,0,0,0,1.73,1.648,5.465,5.465,0,0,0,2.539.57,4.945,4.945,0,0,0,2.64-.666,4.211,4.211,0,0,0,1.654-1.987,8.4,8.4,0,0,0,.587-3.243Z" transform="translate(31.388 6.887)" fill="#082f33"/>
    <path id="Path_142" data-name="Path 142" d="M86.391,24.99l-5.777.64a4.843,4.843,0,0,0-.839-1.675,4.334,4.334,0,0,0-1.621-1.263,5.749,5.749,0,0,0-2.485-.482,5.954,5.954,0,0,0-3.318.873,2.574,2.574,0,0,0-1.323,2.264,2.4,2.4,0,0,0,.205,1.076,2.362,2.362,0,0,0,.661.866,7.178,7.178,0,0,0,2.936,1.229l4.588,1A11.554,11.554,0,0,1,85.1,32.17a6.421,6.421,0,0,1,1.887,4.756,7.519,7.519,0,0,1-1.48,4.551,9.671,9.671,0,0,1-4.054,3.075,14.959,14.959,0,0,1-5.953,1.1,13.578,13.578,0,0,1-7.948-2.11,8.443,8.443,0,0,1-3.59-5.889l6.163-.6a4.428,4.428,0,0,0,1.787,2.8,6.164,6.164,0,0,0,3.565.945,6.292,6.292,0,0,0,3.632-.945,2.747,2.747,0,0,0,1.363-2.339,2.482,2.482,0,0,0-.223-1.075,2.438,2.438,0,0,0-.662-.867A6.237,6.237,0,0,0,76.847,34.4l-4.586-.969a10.783,10.783,0,0,1-5.725-2.774A6.835,6.835,0,0,1,64.7,25.709a7.1,7.1,0,0,1,1.357-4.393,8.879,8.879,0,0,1,3.836-2.885,14.687,14.687,0,0,1,5.681-1.024,12.137,12.137,0,0,1,7.451,2.048A8.659,8.659,0,0,1,86.391,24.99Z" transform="translate(42.629 10.531)" fill="#082f33"/>
    <path id="Path_143" data-name="Path 143" d="M104.515,55.386H98.153V40.812h-.264a10.73,10.73,0,0,1-1.417,2.113,7.757,7.757,0,0,1-2.441,1.9A8.339,8.339,0,0,1,90.2,45.6a10.059,10.059,0,0,1-5.675-1.656,11.219,11.219,0,0,1-3.957-4.812,18.22,18.22,0,0,1-1.453-7.66,18.013,18.013,0,0,1,1.481-7.705,11.051,11.051,0,0,1,4-4.758,10.223,10.223,0,0,1,5.62-1.611,8.235,8.235,0,0,1,3.886.811,7.487,7.487,0,0,1,2.418,1.942A11.961,11.961,0,0,1,97.9,22.288h.386v-4.53h6.23ZM98.274,31.44a13.311,13.311,0,0,0-.725-4.613,6.64,6.64,0,0,0-2.137-3.047,6.092,6.092,0,0,0-7,.036,6.775,6.775,0,0,0-2.135,3.1,13.184,13.184,0,0,0-.719,4.526,13.359,13.359,0,0,0,.728,4.571,7,7,0,0,0,2.154,3.154,5.874,5.874,0,0,0,6.941.026,6.816,6.816,0,0,0,2.154-3.109A13.4,13.4,0,0,0,98.274,31.44Z" transform="translate(53.396 10.527)" fill="#082f33"/>
    <path id="Path_144" data-name="Path 144" d="M114.175,33.465V17.609h6.331V44.975h-6.141V40.108h-.279a8.223,8.223,0,0,1-2.985,3.76,8.616,8.616,0,0,1-5.1,1.462,8.953,8.953,0,0,1-4.666-1.2,8.162,8.162,0,0,1-3.16-3.51,12.516,12.516,0,0,1-1.139-5.584V17.609h6.339v16.43a5.888,5.888,0,0,0,1.4,4.133,4.746,4.746,0,0,0,3.676,1.532,5.729,5.729,0,0,0,2.713-.693,5.62,5.62,0,0,0,2.164-2.076A6.524,6.524,0,0,0,114.175,33.465Z" transform="translate(66.13 10.675)" fill="#082f33"/>
    <path id="Path_145" data-name="Path 145" d="M122.11,45.684a10.913,10.913,0,0,1-4.6-.939,7.429,7.429,0,0,1-3.221-2.774,8.179,8.179,0,0,1-1.184-4.526,7.83,7.83,0,0,1,.84-3.83,6.551,6.551,0,0,1,2.294-2.424,11.646,11.646,0,0,1,3.284-1.383,26.983,26.983,0,0,1,3.791-.685q2.366-.25,3.835-.455a5.513,5.513,0,0,0,2.145-.64,1.5,1.5,0,0,0,.522-.588,1.519,1.519,0,0,0,.152-.776v-.107a4.079,4.079,0,0,0-1.172-3.117,4.746,4.746,0,0,0-3.382-1.1,5.954,5.954,0,0,0-3.686,1.033,5.1,5.1,0,0,0-1.829,2.441l-5.917-.853a9.731,9.731,0,0,1,2.306-4.178,10.183,10.183,0,0,1,3.941-2.531,14.992,14.992,0,0,1,5.146-.854,16.483,16.483,0,0,1,3.871.463,10.936,10.936,0,0,1,3.529,1.534,7.8,7.8,0,0,1,2.566,2.876,9.593,9.593,0,0,1,.972,4.543V45.131h-6.1v-3.76h-.209a7.7,7.7,0,0,1-4.23,3.715A10.3,10.3,0,0,1,122.11,45.684Zm1.652-4.739a6.711,6.711,0,0,0,3.308-.777,5.6,5.6,0,0,0,2.162-2.057,5.373,5.373,0,0,0,.761-2.8V32.089a2.915,2.915,0,0,1-1.006.463,14.335,14.335,0,0,1-1.584.374c-.585.107-1.161.2-1.733.286l-1.49.213a10.888,10.888,0,0,0-2.537.64,4.239,4.239,0,0,0-1.77,1.238,3.123,3.123,0,0,0-.648,2.04,3.091,3.091,0,0,0,1.28,2.691A5.5,5.5,0,0,0,123.763,40.944Z" transform="translate(77.556 10.524)" fill="#082f33"/>
    <path id="Path_146" data-name="Path 146" d="M129.688,45.139V17.773h6.146v4.56h.279a6.739,6.739,0,0,1,6.636-4.953q.529,0,1.185.045a8.933,8.933,0,0,1,1.093.132v5.934a6.8,6.8,0,0,0-1.271-.258,12.633,12.633,0,0,0-1.676-.115,6.343,6.343,0,0,0-3.108.755,5.61,5.61,0,0,0-2.164,2.093,5.959,5.959,0,0,0-.787,3.083V45.139Z" transform="translate(89.337 10.512)" fill="#082f33"/>
    <path id="Path_147" data-name="Path 147" d="M152.788,45.658a13.56,13.56,0,0,1-6.979-1.72,11.421,11.421,0,0,1-4.508-4.88,16.516,16.516,0,0,1-1.576-7.458,16.5,16.5,0,0,1,1.584-7.419,12.078,12.078,0,0,1,4.432-4.989,12.336,12.336,0,0,1,6.711-1.791,13.537,13.537,0,0,1,4.7.811,10.76,10.76,0,0,1,3.922,2.5,11.765,11.765,0,0,1,2.7,4.3,17.561,17.561,0,0,1,.98,6.209v1.989H142.7V28.858h15.97a7.063,7.063,0,0,0-.79-3.305,5.819,5.819,0,0,0-2.142-2.29,6.023,6.023,0,0,0-3.2-.839,6.126,6.126,0,0,0-3.413.954,6.627,6.627,0,0,0-2.287,2.494A7.285,7.285,0,0,0,146,29.249v3.8a9.019,9.019,0,0,0,.857,4.088,6.122,6.122,0,0,0,2.4,2.6,7.038,7.038,0,0,0,3.608.9,7.4,7.4,0,0,0,2.5-.4,5.379,5.379,0,0,0,1.943-1.186,4.954,4.954,0,0,0,1.245-1.942l5.917.679a9.4,9.4,0,0,1-2.126,4.159,10.347,10.347,0,0,1-4,2.744A14.938,14.938,0,0,1,152.788,45.658Z" transform="translate(96.471 10.527)" fill="#082f33"/>
  </g>
</svg>
