<svg xmlns="http://www.w3.org/2000/svg" width="300.726" height="33.75" viewBox="0 0 300.726 33.75">
  <g id="_3.480d2fc2" data-name="3.480d2fc2" opacity="0.6">
    <path id="Path_91" data-name="Path 91" d="M8.674,14.012v24.31c.029.77-.333,1.09-1.1,1.072q-2.74-.033-5.494,0c-.78,0-1.125-.32-1.1-1.09V6.707c-.044-.672.216-1,.938-1,3.48.018,6.96,0,10.439,0a1.327,1.327,0,0,1,.771.194,1.31,1.31,0,0,1,.518.6q4.59,8.355,9.223,16.71c1,1.8,1.985,3.6,2.993,5.394.4.7.733.726,1.125.018q3.088-5.558,6.154-11.12,3.033-5.482,6.066-10.967a1.369,1.369,0,0,1,.518-.617,1.386,1.386,0,0,1,.778-.222H50.761c.674,0,1.04.243,1.018.948V37.882c-.033,1.391-.077,1.453-1.421,1.486q-2.379.038-4.762,0c-1.586-.025-1.641-.058-1.645-1.646V14.016a2.626,2.626,0,0,0-1.37,1.482Q36.355,26.89,30.165,38.3a1.822,1.822,0,0,1-.764.857,1.844,1.844,0,0,1-1.129.233,36.156,36.156,0,0,0-3.663,0,2.052,2.052,0,0,1-2.165-1.268c-1.491-2.841-3.084-5.631-4.634-8.442Q13.652,22.128,9.5,14.568c-.139-.247-.311-.476-.469-.727Z" transform="translate(-0.978 -5.676)" fill="#082f33"/>
    <path id="Path_92" data-name="Path 92" d="M223.551,22.514v15.8c0,.777-.408,1.09-1.143,1.09-1.649,0-3.3.062-4.942-.025a2.944,2.944,0,0,1-1.608-.679c-1.762-1.489-3.473-3.041-5.18-4.592q-6.669-6.07-13.319-12.158c-1.7-1.558-3.383-3.139-5.083-4.7a4.749,4.749,0,0,0-.993-.785c-.124-.065-.578.163-.616.323a5.551,5.551,0,0,0-.051,1.261V38.377c0,.661-.307,1.024-.986,1.024h-5.673a.845.845,0,0,1-.365-.033.838.838,0,0,1-.523-.484.848.848,0,0,1-.057-.359c0-.425-.022-.846-.022-1.272V7.83c0-2.22-.091-2.107,2.066-2.1,1.648,0,3.3.029,4.941,0a2.613,2.613,0,0,1,1.981.708c2.318,2.143,4.667,4.254,7.011,6.372q5.2,4.722,10.418,9.4c1.622,1.453,3.259,2.906,4.889,4.359a7.64,7.64,0,0,0,.824.727c.392.258.7.163.734-.345.033-.421,0-.846,0-1.272V7.878a6.167,6.167,0,0,1,.043-1.453c.067-.269.425-.658.66-.665,2.074-.051,4.147-.033,6.226-.029.528,0,.759.3.756.806V22.514Z" transform="translate(17.474 -5.674)" fill="#082f33"/>
    <path id="Path_93" data-name="Path 93" d="M124.1,39.374c-2.875,0-5.494.036-8.083-.033a2.455,2.455,0,0,1-1.419-.727c-2.52-2.372-5.029-4.762-7.479-7.2a3.276,3.276,0,0,0-2.564-1.09c-3.721.051-7.447,0-11.168,0-1.352,0-1.436.087-1.465,1.453-.026,2,0,4,0,5.994-.018,1.453-.114,1.548-1.568,1.569-1.711.025-3.417.029-5.128,0-1.194-.018-1.326-.124-1.33-1.206q-.029-6.626,0-13.256c0-1.028.08-1.09,1.194-1.09,3.784-.018,7.568,0,11.355,0,3.725,0,7.451.047,11.172-.022a16.916,16.916,0,0,0,3.959-.541c2.728-.726,4.249-2.692,4.062-5.289-.187-2.674-1.359-4.385-4.534-5.155a14.246,14.246,0,0,0-3.271-.283q-10.806-.033-21.611,0c-2.546,0-2.352.065-2.341-2.412,0-1.09.029-2.18,0-3.269,0-.727.231-1.17,1.044-1.09a1.546,1.546,0,0,0,.183,0c8.425,0,16.849-.04,25.275.069a15.562,15.562,0,0,1,7.977,2.336,11.618,11.618,0,0,1,5.1,11.646,10.76,10.76,0,0,1-6.754,9.005c-.444.189-.9.363-1.334.57-.6.287-.663.6-.158,1.09,1.036,1.024,2.129,1.994,3.154,3.03C120.2,35.32,122.007,37.205,124.1,39.374Z" transform="translate(7.427 -5.674)" fill="#082f33"/>
    <path id="Path_94" data-name="Path 94" d="M153.007,13.669c-.854,1.326-1.616,2.47-2.331,3.633q-6.4,10.462-12.754,20.939a2.072,2.072,0,0,1-2.051,1.155c-1.953-.062-3.9,0-5.86-.036-.942-.018-1.066-.272-.594-1.09q4.12-7.058,8.259-14.1c3.414-5.787,6.873-11.548,10.257-17.357a1.942,1.942,0,0,1,2.014-1.13c2.131.073,4.27.065,6.407,0a1.886,1.886,0,0,1,1.864,1.09q8.153,13.993,16.344,27.921c.734,1.253,1.5,2.488,2.2,3.756.367.621.2.908-.51.919-2.2.033-4.4,0-6.594.029-.98,0-1.351-.687-1.761-1.362q-3.491-5.75-6.977-11.5-3.638-5.976-7.3-11.941C153.487,14.348,153.31,14.119,153.007,13.669Z" transform="translate(12.016 -5.678)" fill="#082f33"/>
    <path id="Path_95" data-name="Path 95" d="M254.586,13.654c-.47.665-.807,1.09-1.1,1.54q-6.879,11.33-13.729,22.675a2.732,2.732,0,0,1-2.794,1.548c-1.465-.109-2.93,0-4.4-.044a14.814,14.814,0,0,1-1.9-.287,19.2,19.2,0,0,1,.81-1.751q3.147-5.416,6.337-10.811c3.838-6.513,7.691-13.016,11.5-19.547a2.093,2.093,0,0,1,2.137-1.282c2.068.091,4.146.065,6.226,0a2.024,2.024,0,0,1,1.207.242,2,2,0,0,1,.837.9q8.184,14.055,16.439,28.059c.7,1.2,1.421,2.394,2.117,3.6.291.5.119.854-.457.861q-3.473.044-6.96,0c-.733,0-1-.578-1.323-1.09q-3.516-5.812-7.051-11.646C259.932,22.383,257.335,18.155,254.586,13.654Z" transform="translate(22.308 -5.678)" fill="#082f33"/>
    <path id="Path_96" data-name="Path 96" d="M70.327,22.41V38.383c0,.563-.275.959-.857.966-2.135.025-4.271.022-6.4,0-.517,0-.733-.363-.758-.846V6.557c0-.614.333-.846.919-.846h6.227a.768.768,0,0,1,.872.894V7.876Q70.323,15.144,70.327,22.41Z" transform="translate(5.24 -5.675)" fill="#082f33"/>
  </g>
</svg>
