<svg xmlns="http://www.w3.org/2000/svg" width="319.556" height="41.925" viewBox="0 0 319.556 41.925">
  <g id="_4.72938515" data-name="4.72938515" opacity="0.6">
    <g id="Group_45" data-name="Group 45" transform="translate(0 0)">
      <path id="Path_97" data-name="Path 97" d="M255.276,28.58a5.784,5.784,0,0,1,3.981,1.31l.016.044,1.361-1.558a7.869,7.869,0,0,0-5.431-1.892,8.2,8.2,0,0,0-2.722.378,4.814,4.814,0,0,0-2.138,1.368,3.423,3.423,0,0,0-.892,2.416,3.371,3.371,0,0,0,.469,1.849,3.122,3.122,0,0,0,1.375,1.179,9.667,9.667,0,0,0,1.756.67,14.941,14.941,0,0,0,2.065.364,9.105,9.105,0,0,1,2.928.728,1.461,1.461,0,0,1,.967,1.543,1.776,1.776,0,0,1-1.1,1.689,5.708,5.708,0,0,1-2.5.524,6.176,6.176,0,0,1-5.066-2.184l-1.362,1.63A8.852,8.852,0,0,0,259.6,40.2a3.58,3.58,0,0,0,1.727-3.13,3.386,3.386,0,0,0-.382-1.762,3.6,3.6,0,0,0-.936-1.194,4.41,4.41,0,0,0-1.465-.728,13.215,13.215,0,0,0-1.582-.422c-.422-.073-.979-.146-1.654-.218-2.343-.277-3.542-.975-3.542-2.1a1.628,1.628,0,0,1,.967-1.543A5.08,5.08,0,0,1,255.276,28.58ZM245.63,38.624l0,0L244.061,37.2a4.368,4.368,0,0,1-1.962,1.3,7.33,7.33,0,0,1-2.561.48,5.466,5.466,0,0,1-3.513-1.164,4.406,4.406,0,0,1-1.143-1.373,4.357,4.357,0,0,1-.5-1.713h12.106a7.463,7.463,0,0,0-1.639-6.172,7.2,7.2,0,0,0-5.49-2.14,7.246,7.246,0,0,0-5.3,2.067,7.167,7.167,0,0,0-2.079,5.27,7.17,7.17,0,0,0,2.079,5.372,7.438,7.438,0,0,0,5.418,2.023,9.355,9.355,0,0,0,3.44-.641,6.589,6.589,0,0,0,2.706-1.876l.032.027ZM244.165,32.8a4.079,4.079,0,0,0-.348-1.714,4.123,4.123,0,0,0-1.028-1.416,5.115,5.115,0,0,0-3.441-1.106,5.207,5.207,0,0,0-3.336,1.121,4.615,4.615,0,0,0-1.7,3.086h9.851Zm-21.286-6.1,0,.029h-2.17V40.9h2.357v-7.89a4.112,4.112,0,0,1,1.215-3.057,4.188,4.188,0,0,1,2.928-1.179,4.409,4.409,0,0,1,2.488.772l1.068-2.009a5.087,5.087,0,0,0-3.323-1.063,4.545,4.545,0,0,0-4.393,2.358l-.172-2.1h.013ZM168.9,38.625h0l.029.029Zm0,0a6.494,6.494,0,0,1-2.708,1.877,9.279,9.279,0,0,1-3.424.641,7.344,7.344,0,0,1-5.417-2.023,7.108,7.108,0,0,1-2.079-5.372,7.1,7.1,0,0,1,2.079-5.27,7.731,7.731,0,0,1,10.787.073,7.4,7.4,0,0,1,1.626,6.172H157.66a4.351,4.351,0,0,0,1.654,3.086,5.407,5.407,0,0,0,3.513,1.165,7.158,7.158,0,0,0,2.546-.481,4.4,4.4,0,0,0,1.979-1.3Zm-1.73-7.539a4.067,4.067,0,0,1,.356,1.715v-.029H157.66a4.635,4.635,0,0,1,1.713-3.086,5.212,5.212,0,0,1,3.338-1.121,5.068,5.068,0,0,1,3.426,1.106A4.114,4.114,0,0,1,167.171,31.086Zm-21.823,6.883-6.9-17.149h-2.8l8.359,20.133h2.708l8.33-20.133h-2.767ZM175.637,26.7h-2.168V40.895h2.343V33.3a4.654,4.654,0,0,1,1.233-3.275,4.156,4.156,0,0,1,3.144-1.339,4.259,4.259,0,0,1,3.179,1.179,4.451,4.451,0,0,1,1.156,3.232v7.8h2.356V33.063a6.587,6.587,0,0,0-1.74-4.8,6.106,6.106,0,0,0-4.51-1.762,5.767,5.767,0,0,0-4.876,2.475Zm19.339.058h4.393v2.009h-4.393v7.483c0,1.805.763,2.722,2.253,2.722a4.421,4.421,0,0,0,1.994-.524l.685,1.951a7.016,7.016,0,0,1-2.765.684q-4.5.087-4.494-4.833V28.769h-2.856V26.76h2.856v-3.9l2.357-.262Zm18.74,11.864.117,2.271H216V26.73h-2.37v7.6a4.651,4.651,0,0,1-1.215,3.261,4.234,4.234,0,0,1-3.163,1.354,4.259,4.259,0,0,1-3.176-1.179,4.472,4.472,0,0,1-1.143-3.232v-7.8h-2.372v7.817a6.579,6.579,0,0,0,1.714,4.8,6.246,6.246,0,0,0,9.443-.728Z" transform="translate(58.228 0.603)" fill="#082f33" fill-rule="evenodd"/>
      <path id="Path_98" data-name="Path 98" d="M172.224,27.5,155.082,6h-9.4v41.01l11.789-.036.012-21.465,17.191,21.5h9.348V5.961h-11.8ZM133.9,5.961V47.007H122.1V5.961Zm-20.942,0H99.223L91.1,16.947,83.052,5.961H69.321L84.242,26.279,69.017,47.019H82.748l8.353-11.4,8.426,11.4h13.731L97.972,26.279ZM60.179,47.007V5.961h-11.8V47.007ZM33.215,25.229l-.352.229.376.181c.644.314,6.265,3.271,6.265,9.755,0,6.8-5.172,11.626-12.553,11.626H1.176V5.973H25.894c6.932,0,11.959,4.66,11.959,11.095a10.345,10.345,0,0,1-4.638,8.161ZM22.823,14.593H13.11v7.171h9.713c3,0,4.055-1.835,4.055-3.549C26.878,16.041,25.251,14.593,22.823,14.593ZM13.11,38.533h9.773v.012c2.683,0,4.565-1.63,4.565-4.117s-1.8-4.093-4.565-4.093H13.11Z" transform="translate(-1.176 -5.961)" fill="#082f33" fill-rule="evenodd"/>
    </g>
  </g>
</svg>
