<svg xmlns="http://www.w3.org/2000/svg" width="455.702" height="55.585" viewBox="0 0 455.702 55.585">
  <g id="_2.59e6b90d" data-name="2.59e6b90d" opacity="0.6">
    <g id="Group_44" data-name="Group 44" transform="translate(0 0)">
      <path id="Path_80" data-name="Path 80" d="M6.214,20.791h3.9l9.843,16.352L30.188,20.791h3.9V41.815H30.773V25.657l-9.161,14.6H18.3l-8.771-14.5v16.06H6.214Z" transform="translate(-6.214 7.15)" fill="#082f33"/>
      <path id="Path_81" data-name="Path 81" d="M44.474,20.791h4.581L59.677,41.815H56.168l-2.436-4.769H39.99l-2.436,4.769H33.948ZM41.355,34.32H52.368l-5.555-10.8Z" transform="translate(17.407 7.15)" fill="#082f33"/>
      <path id="Path_82" data-name="Path 82" d="M60.213,20.791H74.831q4.288,0,6.432,1.752a5.836,5.836,0,0,1,2.144,4.867,5.935,5.935,0,0,1-2.144,4.867q-2.144,1.752-6.432,1.752H63.526v7.787H60.213ZM63.526,31.3H74.831q5.263,0,5.263-3.893a3.407,3.407,0,0,0-1.267-2.92,6.537,6.537,0,0,0-4-.973H63.526Z" transform="translate(39.776 7.15)" fill="#082f33"/>
      <path id="Path_83" data-name="Path 83" d="M85.738,20.791h3.314v18.3h18.029v2.725H85.738Z" transform="translate(61.516 7.15)" fill="#082f33"/>
      <path id="Path_84" data-name="Path 84" d="M110.79,41.815V20.791h23.194v2.725H114.1V29.94h17.93v2.725H114.1v6.424h19.88v2.725Z" transform="translate(82.852 7.15)" fill="#082f33"/>
      <path id="Path_85" data-name="Path 85" d="M153.357,20.791a8.388,8.388,0,0,1,3.605.779,5.445,5.445,0,0,1,3.314,5.159,5.458,5.458,0,0,1-.585,2.628A5.534,5.534,0,0,1,157.84,31.4a5.848,5.848,0,0,1,1.755,2.044,5.253,5.253,0,0,1,.681,2.531,5.748,5.748,0,0,1-.876,3.114,5.652,5.652,0,0,1-2.439,2.044,8.379,8.379,0,0,1-3.605.779H136.79V20.791ZM140.1,23.516V29.94h13.253a3.61,3.61,0,0,0,2.729-.876,3.45,3.45,0,0,0,0-4.672,3.61,3.61,0,0,0-2.729-.876Zm13.253,15.671a3.61,3.61,0,0,0,2.729-.876,3.451,3.451,0,0,0,0-4.672,3.61,3.61,0,0,0-2.729-.876H140.1v6.424Z" transform="translate(104.996 7.15)" fill="#082f33"/>
      <path id="Path_86" data-name="Path 86" d="M162.949,20.791h3.315v18.3h18.128v2.725H162.949Z" transform="translate(127.275 7.15)" fill="#082f33"/>
      <path id="Path_87" data-name="Path 87" d="M213.317,31.474a9.529,9.529,0,0,1,1.755-5.548,11.783,11.783,0,0,1,4.774-3.991,15.714,15.714,0,0,1,6.822-1.46q7.116,0,10.918,4.38L235.341,26.7a8.934,8.934,0,0,0-3.411-2.433,13.061,13.061,0,0,0-5.164-.876,12.4,12.4,0,0,0-5.361,1.071,9.167,9.167,0,0,0-3.7,2.92,6.815,6.815,0,0,0,0,7.981,9.168,9.168,0,0,0,3.7,2.92,12.4,12.4,0,0,0,5.361,1.071,12.972,12.972,0,0,0,5.164-.876,8.934,8.934,0,0,0,3.411-2.433L237.585,38q-3.8,4.38-10.918,4.38a15.711,15.711,0,0,1-6.822-1.46,11.779,11.779,0,0,1-4.774-3.99A9.514,9.514,0,0,1,213.317,31.474Z" transform="translate(170.173 6.88)" fill="#082f33"/>
      <path id="Path_88" data-name="Path 88" d="M239.367,20.791h3.314v9.831L257.3,20.791h5.262l-14.228,9.733,15.008,11.291h-5.361l-12.473-9.344-2.828,1.849v7.4h-3.314Z" transform="translate(192.359 7.15)" fill="#082f33"/>
      <path id="Path_89" data-name="Path 89" d="M181.329,35.785a25.875,25.875,0,0,1,51.749,0,10.5,10.5,0,0,1-.1,1.752,27.885,27.885,0,1,0-29.821,23.749,25.8,25.8,0,0,1-21.83-25.5Z" transform="translate(139.689 -5.701)" fill="#082f33"/>
      <path id="Path_90" data-name="Path 90" d="M218.848,16.566c-6.142,2.92-6.238,7.495-7.31,2.433-3.313,4.185-1.655,5.743-3.8,7.689-1.952-3.017-.2-6.424-3.022-11.291-.781,6.229-8.771-3.6-8.868-3.7s.681,12.751-4.1,8.663c1.17,5.548,4.777,6.813,5.361,10.415-2.922,0-2.728-2.239-7.99-3.115,2.629,4.575-.583,1.168-7.018,3.115,1.17,0,10.332,4.964,3.7,7.008,3.216,2.531,10.331,2.141,10.331,2.141s-3.411,1.557-3.994,4.38c4.968-3.115.389,1.849,1.657,4.38,4.774-3.212,5.263-3.407,4.968.292,4.192-4.283,3.509-7.4,7.6-8.76.583,1.363,3.02,7.689-1.268,12.945a2.538,2.538,0,0,1,1.852.292l.293.39c.683-.779,3.7-5.061-.1-14.016,4-1.752,5.555,1.071,11.6,1.362-2.729-2.531-2.241-2.725,3.411-3.6-.683-2.725-7.5-3.309-1.657-4.38-2.341-1.654-5.946-.584-5.946-.584s5.557-4.478,6.238-8.565C214.558,27.176,217.968,17.345,218.848,16.566Z" transform="translate(143.59 -0.594)" fill="#082f33"/>
    </g>
  </g>
</svg>
