<svg xmlns="http://www.w3.org/2000/svg" width="375.352" height="75.07" viewBox="0 0 375.352 75.07">
  <g id="binance.dd7f9522" opacity="0.6">
    <path id="Path_158" data-name="Path 158" d="M32.895,31.543l14.58-14.574L62.061,31.555l8.479-8.485L47.475,0,24.41,23.065Z" transform="translate(-9.934)" fill="#082f33"/>
    <path id="Path_159" data-name="Path 159" d="M0,0H11.995V11.995H0Z" transform="translate(0 37.536) rotate(-45)" fill="#082f33"/>
    <path id="Path_160" data-name="Path 160" d="M32.887,73.406l14.58,14.58L62.052,73.4l8.485,8.473-.006.006L47.466,104.949,24.4,81.891l-.012-.012Z" transform="translate(-9.926 -29.88)" fill="#082f33"/>
    <path id="Path_161" data-name="Path 161" d="M0,0H11.995V11.995H0Z" transform="translate(58.104 37.538) rotate(-45)" fill="#082f33"/>
    <path id="Path_162" data-name="Path 162" d="M66,57.389,57.4,48.78l-6.362,6.362-.735.729-1.506,1.506-.012.012.012.018L57.4,66,66,57.4,66,57.389Z" transform="translate(-19.854 -19.857)" fill="#082f33"/>
    <g id="Group_48" data-name="Group 48" transform="translate(88.301 17.525)">
      <path id="Path_163" data-name="Path 163" d="M148.37,30.68h18.452q6.866,0,10.388,3.558a9.19,9.19,0,0,1,2.722,6.712v.113a9.884,9.884,0,0,1-.421,3.012,9.251,9.251,0,0,1-1.132,2.372,8.758,8.758,0,0,1-1.636,1.85,10.625,10.625,0,0,1-2.01,1.364,13.436,13.436,0,0,1,5.437,3.558,9.11,9.11,0,0,1,1.98,6.226v.113a10.34,10.34,0,0,1-1.049,4.779,9.321,9.321,0,0,1-3.006,3.415,14.26,14.26,0,0,1-4.714,2.046,25.318,25.318,0,0,1-6.1.682H148.37Zm16.6,16.092a9.125,9.125,0,0,0,4.607-1,3.439,3.439,0,0,0,1.7-3.214v-.113a3.516,3.516,0,0,0-1.476-3.042,7.307,7.307,0,0,0-4.263-1.049H156.9v8.414ZM167.3,62.81a8.42,8.42,0,0,0,4.566-1.049,3.605,3.605,0,0,0,1.648-3.273v-.113a3.741,3.741,0,0,0-1.536-3.154q-1.53-1.186-4.945-1.186H156.9V62.81Z" transform="translate(-148.37 -30.014)" fill="#082f33"/>
      <path id="Path_164" data-name="Path 164" d="M223.88,30.68h8.757V70.489H223.88Z" transform="translate(-179.109 -30.014)" fill="#082f33"/>
      <path id="Path_165" data-name="Path 165" d="M261,30.68h8.076l18.665,24.5V30.68h8.645V70.489h-7.453L269.657,45.183V70.489H261Z" transform="translate(-194.219 -30.014)" fill="#082f33"/>
      <path id="Path_166" data-name="Path 166" d="M353.684,30.2h8.064l17.058,40.093h-9.143l-3.641-8.929H349.19l-3.641,8.929H336.62ZM362.9,53.632l-5.3-12.914-5.277,12.914Z" transform="translate(-225.003 -29.819)" fill="#082f33"/>
      <path id="Path_167" data-name="Path 167" d="M423.74,30.68h8.076l18.653,24.5V30.68h8.645V70.489h-7.453L432.385,45.183V70.489H423.74Z" transform="translate(-260.467 -30.014)" fill="#082f33"/>
      <path id="Path_168" data-name="Path 168" d="M522.54,70.731a20.71,20.71,0,0,1-8.135-1.589,19.667,19.667,0,0,1-10.75-10.862,21.072,21.072,0,0,1-1.536-8.022v-.113a20.657,20.657,0,0,1,5.8-14.533,19.7,19.7,0,0,1,6.522-4.435,21.287,21.287,0,0,1,8.414-1.619,26.379,26.379,0,0,1,5.087.457,21.141,21.141,0,0,1,4.186,1.251A18.08,18.08,0,0,1,535.6,33.2a23.429,23.429,0,0,1,2.965,2.5L533,42.129a21.172,21.172,0,0,0-4.743-3.3,12.137,12.137,0,0,0-5.431-1.186,11.016,11.016,0,0,0-8.3,3.641,12.506,12.506,0,0,0-2.4,3.955,13.56,13.56,0,0,0-.848,4.809v.113a13.762,13.762,0,0,0,.848,4.8,12.641,12.641,0,0,0,2.372,3.979,10.945,10.945,0,0,0,8.3,3.7,12.166,12.166,0,0,0,5.769-1.251,22.308,22.308,0,0,0,4.69-3.415l5.573,5.633a28.413,28.413,0,0,1-3.184,2.965,18.978,18.978,0,0,1-3.611,2.247,18.712,18.712,0,0,1-4.293,1.417,25.56,25.56,0,0,1-5.206.5Z" transform="translate(-292.374 -29.557)" fill="#082f33"/>
      <path id="Path_169" data-name="Path 169" d="M581.47,30.68h29.96v7.791H590.085v8.076h18.8v7.791H590.115V62.7h21.612v7.791H581.488Z" transform="translate(-324.676 -30.014)" fill="#082f33"/>
    </g>
  </g>
</svg>
