<svg xmlns="http://www.w3.org/2000/svg" width="193.191" height="60.049" viewBox="0 0 193.191 60.049">
  <g id="_6.7a402069" data-name="6.7a402069" opacity="0.6">
    <path id="Path_59" data-name="Path 59" d="M89.852,5.378,102.117,22.9l-6.406,9.564L76.781,5.378Z" transform="translate(61.745 -5.346)" fill="#a5b3b5"/>
    <path id="Path_60" data-name="Path 60" d="M105.045,50.07,91.46,30.685l6.406-9.308L117.859,50.07Z" transform="translate(75.332 9.465)" fill="#a5b3b5"/>
    <path id="Path_61" data-name="Path 61" d="M43.324,5.378l13.07,18.069L49.215,33.524,29.771,5.378Z" transform="translate(18.228 -5.346)" fill="#6a8184"/>
    <path id="Path_62" data-name="Path 62" d="M183.966,5.393,142.341,64.864h12.781L197,5.361H183.966Zm-56.563,0h11.2V64.9H127.4V62.65a22.5,22.5,0,1,1,0-39.476Zm-11.01,50.132a12.742,12.742,0,1,0-12.845-12.742A12.806,12.806,0,0,0,116.393,55.525ZM94.953,5.393,53.327,64.864H66.365l41.561-59.5H94.953Zm-56.531,0h11.2V64.9h-11.2V62.65a22.5,22.5,0,1,1,0-39.476ZM27.412,55.525A12.742,12.742,0,1,0,14.567,42.783,12.806,12.806,0,0,0,27.412,55.525Z" transform="translate(-4.845 -5.361)" fill="#082f33"/>
  </g>
</svg>
