<svg xmlns="http://www.w3.org/2000/svg" xmlns:xlink="http://www.w3.org/1999/xlink" width="286" height="74" viewBox="0 0 286 74">
  <defs>
    <clipPath id="clip-path">
      <rect id="Rectangle_36" data-name="Rectangle 36" width="286" height="74" transform="translate(0 0)" fill="#fff"/>
    </clipPath>
  </defs>
  <g id="_1.a9d21e39" data-name="1.a9d21e39" transform="translate(0)" opacity="0.6" clip-path="url(#clip-path)">
    <g id="Group_42" data-name="Group 42" transform="translate(-0.175 6.243)">
      <path id="Path_11" data-name="Path 11" d="M73.636,15.35a10.5,10.5,0,0,1,4.184,4.5,14.56,14.56,0,0,1,1.62,7.008,12.757,12.757,0,0,1-1.755,6.876,9.986,9.986,0,0,1-4.725,4.364,15.2,15.2,0,0,1-7.019,1.587,11.2,11.2,0,0,1-4.185-.793,8.581,8.581,0,0,1-3.51-2.116V50.523H50.419V14.292h6.749l.675,2.909a15.129,15.129,0,0,1,9.584-3.57A10.955,10.955,0,0,1,73.636,15.35Zm-4.32,16.4a6.032,6.032,0,0,0,2.025-4.76,6.939,6.939,0,0,0-1.89-4.893,5.983,5.983,0,0,0-4.589-1.851,7.445,7.445,0,0,0-3.915.926,6.155,6.155,0,0,0-2.564,2.645v5.95a5.63,5.63,0,0,0,2.16,2.777,7.014,7.014,0,0,0,3.78,1.058A7.25,7.25,0,0,0,69.317,31.746Z" transform="translate(38.266 4.551)" fill="#082f33"/>
      <path id="Path_12" data-name="Path 12" d="M70.1,19.918a12.547,12.547,0,0,1,4.994-4.5A16.41,16.41,0,0,1,82.387,13.7a14.811,14.811,0,0,1,7.289,1.719,12.445,12.445,0,0,1,4.859,4.628,12.148,12.148,0,0,1,1.755,6.612,12.147,12.147,0,0,1-1.755,6.612A11.6,11.6,0,0,1,89.676,37.9a15.98,15.98,0,0,1-7.289,1.719A16.354,16.354,0,0,1,75.1,38.034a11.652,11.652,0,0,1-4.994-4.5,14.091,14.091,0,0,1,0-13.62Zm7.964,11.5a5.246,5.246,0,0,0,4.319,1.851,5.666,5.666,0,0,0,4.32-1.851,7.044,7.044,0,0,0,1.62-4.76,6.813,6.813,0,0,0-1.62-4.76,5.624,5.624,0,0,0-4.454-1.984,5.879,5.879,0,0,0-4.32,1.851,7.4,7.4,0,0,0-1.62,4.893A6.733,6.733,0,0,0,78.068,31.422Z" transform="translate(52.19 4.608)" fill="#082f33"/>
      <path id="Path_13" data-name="Path 13" d="M94.642,3.433v43.5H86.814V3.433Z" transform="translate(66.53 -3.368)" fill="#082f33"/>
      <path id="Path_14" data-name="Path 14" d="M121.928,14.374,106,50.076H98.442l5.939-12.826L93.043,14.374h8.909l6.48,14.281,6.479-14.281Z" transform="translate(71.367 5.128)" fill="#082f33"/>
      <path id="Path_15" data-name="Path 15" d="M139.15,14.894V38.959a10.387,10.387,0,0,1-2.024,6.215,13.5,13.5,0,0,1-5.4,4.363,17.376,17.376,0,0,1-7.424,1.587,20.336,20.336,0,0,1-5.264-.661,24.293,24.293,0,0,1-3.646-1.587,24.8,24.8,0,0,1-3.374-2.512l4.589-5.289a13.222,13.222,0,0,0,3.374,2.38,9.749,9.749,0,0,0,4.186.925,8.55,8.55,0,0,0,4.994-1.454,4.753,4.753,0,0,0,2.025-4.1V35.389a8.79,8.79,0,0,1-3.511,3.041,12.742,12.742,0,0,1-5.669,1.19A11.578,11.578,0,0,1,115.8,37.9a12.726,12.726,0,0,1-4.589-4.628,13.316,13.316,0,0,1-1.755-6.479,12.46,12.46,0,0,1,1.755-6.612,13.433,13.433,0,0,1,4.724-4.76,11.128,11.128,0,0,1,6.074-1.719,17.121,17.121,0,0,1,5.4.793,8.1,8.1,0,0,1,3.646,2.248l.81-1.851ZM131.187,29.7v-5.95a5.733,5.733,0,0,0-2.565-2.777,8.518,8.518,0,0,0-4.184-1.058,7.158,7.158,0,0,0-4.861,1.851,6.036,6.036,0,0,0-2.024,4.76,6.841,6.841,0,0,0,6.884,6.876C127.541,33.274,129.837,32.084,131.187,29.7Z" transform="translate(84.112 4.608)" fill="#082f33"/>
      <path id="Path_16" data-name="Path 16" d="M130.585,19.978a12.847,12.847,0,0,1,4.994-4.628,16.412,16.412,0,0,1,7.289-1.719,14.811,14.811,0,0,1,7.289,1.719,12.443,12.443,0,0,1,4.859,4.628,13.434,13.434,0,0,1,1.755,6.612,12.145,12.145,0,0,1-1.755,6.612,10.878,10.878,0,0,1-4.859,4.628,15.977,15.977,0,0,1-7.289,1.719,16.354,16.354,0,0,1-7.289-1.587,11.646,11.646,0,0,1-4.994-4.5,12.914,12.914,0,0,1-1.755-7.008A12.326,12.326,0,0,1,130.585,19.978Zm7.829,11.5a5.245,5.245,0,0,0,4.319,1.851,5.665,5.665,0,0,0,4.319-1.851,7.042,7.042,0,0,0,1.62-4.76,6.812,6.812,0,0,0-1.62-4.761,5.665,5.665,0,0,0-4.319-1.851,5.875,5.875,0,0,0-4.319,1.851,6.52,6.52,0,0,0-1.755,4.761A8.217,8.217,0,0,0,138.415,31.482Z" transform="translate(99.159 4.551)" fill="#082f33"/>
      <path id="Path_17" data-name="Path 17" d="M170.165,15.687a6.748,6.748,0,0,1,2.427,5.157V38.959h-7.963V23.753q-.2-3.57-3.644-3.57a4.9,4.9,0,0,0-4.321,2.512,11.721,11.721,0,0,0-1.618,6.347v9.917h-7.829V14.894h7.154l.54,3.835a10.039,10.039,0,0,1,3.779-3.7,11.209,11.209,0,0,1,5.669-1.322A8.566,8.566,0,0,1,170.165,15.687Z" transform="translate(113.438 4.608)" fill="#082f33"/>
      <path id="Path_18" data-name="Path 18" d="M55.708,22.5a4.72,4.72,0,0,0-4.589,0L40.59,28.587l-7.154,3.967L22.907,38.636a4.721,4.721,0,0,1-4.589,0L9.949,33.876a4.545,4.545,0,0,1-2.295-3.835V20.653a4.273,4.273,0,0,1,2.295-3.835l8.234-4.628a4.72,4.72,0,0,1,4.589,0l8.234,4.628A4.545,4.545,0,0,1,33.3,20.653v6.083l7.154-4.1V16.554a4.273,4.273,0,0,0-2.295-3.835L22.907,3.992a4.72,4.72,0,0,0-4.589,0L2.795,12.719A4.274,4.274,0,0,0,.5,16.554V34.14a4.274,4.274,0,0,0,2.295,3.835L18.318,46.7a4.721,4.721,0,0,0,4.589,0l10.529-5.95,7.154-4.1L51.119,30.7a4.72,4.72,0,0,1,4.589,0l8.234,4.628a4.546,4.546,0,0,1,2.295,3.835v9.388a4.273,4.273,0,0,1-2.295,3.835l-8.234,4.761a4.721,4.721,0,0,1-4.589,0l-8.234-4.628a4.545,4.545,0,0,1-2.295-3.835V42.6l-7.154,4.1v6.082a4.274,4.274,0,0,0,2.295,3.835l15.523,8.727a4.72,4.72,0,0,0,4.589,0L71.367,56.62a4.546,4.546,0,0,0,2.295-3.835V35.2a4.274,4.274,0,0,0-2.295-3.834Z" transform="translate(-0.5 -3.396)" fill="#082f33"/>
    </g>
  </g>
</svg>
