<svg xmlns="http://www.w3.org/2000/svg" xmlns:xlink="http://www.w3.org/1999/xlink" width="369" height="74" viewBox="0 0 369 74">
  <defs>
    <clipPath id="clip-path">
      <rect id="Rectangle_38" data-name="Rectangle 38" width="369" height="74" transform="translate(0.398 0)" fill="#fff"/>
    </clipPath>
  </defs>
  <g id="_3.d5efe2a6" data-name="3.d5efe2a6" transform="translate(-0.398)" opacity="0.6" clip-path="url(#clip-path)">
    <path id="Path_29" data-name="Path 29" d="M61.729,13.674h4.01L76.977,39.7H71.658l-2.428-5.957H57.91L55.565,39.7h-5.21L61.7,13.674Zm5.892,16.1L63.611,19.2,59.52,29.776Z" transform="translate(37.779 10.828)" fill="#082f33"/>
    <path id="Path_30" data-name="Path 30" d="M68.149,13.674H73.5L80.615,33.34l7.338-19.666h5.019L82.416,39.7h-4.01Z" transform="translate(51.598 10.828)" fill="#082f33"/>
    <path id="Path_31" data-name="Path 31" d="M96.417,13.674h4.01L111.664,39.7h-5.318l-2.428-5.957H92.6L90.252,39.7H85.069Zm5.892,16.1L98.3,19.2,94.207,29.776Z" transform="translate(64.738 10.828)" fill="#082f33"/>
    <path id="Path_32" data-name="Path 32" d="M105.828,13.674h4.637V35.516h11.1V39.7H105.828Z" transform="translate(80.859 10.828)" fill="#082f33"/>
    <path id="Path_33" data-name="Path 33" d="M130.441,13.674h4.01L145.689,39.7H140.37l-2.429-5.957h-11.32L124.276,39.7h-5.182Zm5.891,16.1L132.322,19.2l-4.091,10.581Z" transform="translate(91.161 10.828)" fill="#082f33"/>
    <path id="Path_34" data-name="Path 34" d="M139.853,13.674h6.165l12.628,19.339h.082V13.674h4.639V39.7h-5.893l-12.9-19.965h-.082V39.7h-4.637Z" transform="translate(107.282 10.828)" fill="#082f33"/>
    <path id="Path_35" data-name="Path 35" d="M179.045,20.04a7.662,7.662,0,0,0-2.809-2.067,7.12,7.12,0,0,0-2.7-.517,8.9,8.9,0,0,0-3.683.734,7.9,7.9,0,0,0-2.811,1.986,9.618,9.618,0,0,0-1.855,2.938,10.557,10.557,0,0,0-.627,3.645,11.72,11.72,0,0,0,.627,3.862,9.074,9.074,0,0,0,1.855,3.046,8.33,8.33,0,0,0,2.811,2.013,9.077,9.077,0,0,0,3.683.734,6.739,6.739,0,0,0,3.054-.734,8.877,8.877,0,0,0,2.811-2.421l3.818,2.72a10.522,10.522,0,0,1-4.31,3.536,13.454,13.454,0,0,1-5.427,1.115,15.927,15.927,0,0,1-5.564-.952,13.234,13.234,0,0,1-4.338-2.747,12.978,12.978,0,0,1-2.835-4.3,14.467,14.467,0,0,1-1.038-5.549,14.932,14.932,0,0,1,1.038-5.658,12.794,12.794,0,0,1,2.835-4.379,12.4,12.4,0,0,1,4.338-2.747,15.331,15.331,0,0,1,5.564-.979,12.644,12.644,0,0,1,4.911.952,11.123,11.123,0,0,1,4.226,3.155l-3.6,2.638Z" transform="translate(122.699 10.555)" fill="#082f33"/>
    <path id="Path_36" data-name="Path 36" d="M178.867,13.674H183.5V24.037H195.7V13.674h4.664V39.7H195.7V28.226H183.5V39.7h-4.637Z" transform="translate(137.58 10.828)" fill="#082f33"/>
    <path id="Path_37" data-name="Path 37" d="M198.4,13.674h17.268v4.189h-12.63v6.392H215.01v4.189H203.036v7.072h13.31V39.7H198.4Z" transform="translate(152.747 10.828)" fill="#082f33"/>
    <path id="Path_38" data-name="Path 38" d="M75.35,37.32A37.425,37.425,0,1,1,37.925,0,37.362,37.362,0,0,1,75.35,37.32ZM27.314,52.171H20.058c-1.528,0-2.291,0-2.728-.3a1.907,1.907,0,0,1-.846-1.442c-.027-.544.355-1.2,1.091-2.53L35.524,16.376c.764-1.333,1.146-2.013,1.637-2.258a1.8,1.8,0,0,1,1.664,0c.491.245.873.925,1.637,2.258L44.144,22.8l.027.027A11.615,11.615,0,0,1,45.59,25.76a5.776,5.776,0,0,1,0,2.557,12.506,12.506,0,0,1-1.446,2.965L34.733,47.9l-.027.054A12.627,12.627,0,0,1,32.878,50.7a5.778,5.778,0,0,1-2.237,1.305,12.732,12.732,0,0,1-3.328.218Zm18.331,0h10.42c1.528,0,2.319,0,2.755-.3a1.875,1.875,0,0,0,.845-1.442c.027-.517-.355-1.17-1.064-2.394-.027-.055-.055-.082-.082-.136l-5.21-8.894-.055-.109c-.736-1.224-1.091-1.85-1.582-2.094a1.8,1.8,0,0,0-1.664,0c-.491.245-.873.9-1.637,2.2L43.189,47.9l-.027.027c-.764,1.306-1.146,1.958-1.118,2.5a1.764,1.764,0,0,0,.845,1.442C43.353,52.171,44.117,52.171,45.644,52.171Z" transform="translate(-0.937 0.211)" fill="#082f33" fill-rule="evenodd"/>
  </g>
</svg>
