<svg xmlns="http://www.w3.org/2000/svg" xmlns:xlink="http://www.w3.org/1999/xlink" width="246" height="74" viewBox="0 0 246 74">
  <defs>
    <clipPath id="clip-path">
      <rect id="Rectangle_39" data-name="Rectangle 39" width="246" height="74" transform="translate(-0.459 0)" fill="#fff"/>
    </clipPath>
  </defs>
  <g id="_4.fbce7508" data-name="4.fbce7508" transform="translate(0.459)" opacity="0.6" clip-path="url(#clip-path)">
    <path id="Path_39" data-name="Path 39" d="M39.5,7.048H50.772c2.864,0,4.959.763,6.314,2.075A5.376,5.376,0,0,1,59,13.272a6.583,6.583,0,0,1-.185,1.892,7.749,7.749,0,0,1-1.725,2.654,4.134,4.134,0,0,1-1.14.763,7.987,7.987,0,0,1,3.45,2.075,5.568,5.568,0,0,1,1.14,3.783,6.6,6.6,0,0,1-.585,2.837,6.114,6.114,0,0,1-1.91,2.075,17.084,17.084,0,0,1-2.864,1.312,12.9,12.9,0,0,1-3.819.366H39.684V6.987H39.5Zm10.318,9.824a7.392,7.392,0,0,0,2.864-.58,2.042,2.042,0,0,0,1.14-1.892,2.264,2.264,0,0,0-.955-1.892,3.34,3.34,0,0,0-2.679-.58H44.828v5.1h4.959v-.153Zm1.324,9.671a7.4,7.4,0,0,0,2.864-.58,1.773,1.773,0,0,0,.955-2.075A2.264,2.264,0,0,0,54.006,22a6.127,6.127,0,0,0-3.049-.763H44.643v5.308Z" transform="translate(29.368 5.635)" fill="#082f33"/>
    <path id="Path_40" data-name="Path 40" d="M55.085,7.021h5.359V31.245H55.085Z" transform="translate(41.472 5.662)" fill="#082f33"/>
    <path id="Path_41" data-name="Path 41" d="M62.73,7.021h4.959l11.458,14.95V7.021h5.328V31.245H79.917L67.874,15.9V31.245H62.73Z" transform="translate(47.409 5.662)" fill="#082f33"/>
    <path id="Path_42" data-name="Path 42" d="M88.715,6.918h4.959l10.5,24.407H98.632l-2.279-5.492H86.035l-2.279,5.492H78.212Zm5.729,14.37L91.21,13.356l-3.234,7.932Z" transform="translate(59.432 5.582)" fill="#082f33"/>
    <path id="Path_43" data-name="Path 43" d="M96.052,7.021h4.959l11.457,14.95V7.021h5.36V31.245h-4.589L101.38,15.9V31.245H96.052Z" transform="translate(73.286 5.662)" fill="#082f33"/>
    <path id="Path_44" data-name="Path 44" d="M124.773,31.772a14.055,14.055,0,0,1-4.96-.946,12.612,12.612,0,0,1-6.684-6.621,13.824,13.824,0,0,1-.954-4.912,13.088,13.088,0,0,1,3.635-8.878,11.74,11.74,0,0,1,4-2.654,12.382,12.382,0,0,1,5.145-.946A17.061,17.061,0,0,1,128.006,7a8.82,8.82,0,0,1,2.494.763A18.3,18.3,0,0,1,132.6,8.89a11.946,11.946,0,0,1,1.91,1.525l-3.233,3.966a24.112,24.112,0,0,0-2.866-2.075,6.484,6.484,0,0,0-3.233-.763,7.384,7.384,0,0,0-2.864.58,4.947,4.947,0,0,0-2.279,1.709,12.433,12.433,0,0,0-1.54,2.471,7.8,7.8,0,0,0-.586,2.837,8.078,8.078,0,0,0,.586,3.021,6.941,6.941,0,0,0,1.54,2.471,6.748,6.748,0,0,0,5.143,2.258,8.211,8.211,0,0,0,3.635-.763,16.293,16.293,0,0,0,2.864-2.075l3.418,3.387-1.91,1.892a13.56,13.56,0,0,1-2.278,1.312,11.545,11.545,0,0,1-2.681.946A24.454,24.454,0,0,1,124.773,31.772Z" transform="translate(85.807 5.502)" fill="#082f33"/>
    <path id="Path_45" data-name="Path 45" d="M128.523,7.021H146.85V11.75H133.668v4.912H145.31v4.729H133.668v5.125h13.367v4.729H128.523Z" transform="translate(98.503 5.662)" fill="#082f33"/>
    <path id="Path_46" data-name="Path 46" d="M46.542,41.684a8.474,8.474,0,0,1-3.819-.763,11.282,11.282,0,0,1-3.45-2.075l1.91-2.075a11.975,11.975,0,0,0,2.495,1.709,8,8,0,0,0,2.864.58,4.774,4.774,0,0,0,2.279-.58,1.688,1.688,0,0,0,.77-1.525,1.175,1.175,0,0,0-.185-.763c-.185-.183-.37-.58-.585-.763-.37-.183-.77-.366-1.139-.58-.585-.183-1.324-.366-1.91-.58a11.135,11.135,0,0,1-2.495-.763,5.214,5.214,0,0,1-1.725-.946,8.373,8.373,0,0,1-1.14-1.312,4.554,4.554,0,0,1-.37-2.075,8.171,8.171,0,0,1,.37-2.075,4.736,4.736,0,0,1,1.14-1.525,6.192,6.192,0,0,1,1.909-.946,10.135,10.135,0,0,1,2.279-.366,10.635,10.635,0,0,1,3.45.58,18.653,18.653,0,0,1,2.865,1.526l-1.54,2.258a13.594,13.594,0,0,0-2.279-1.312,5.046,5.046,0,0,0-2.279-.366,3.659,3.659,0,0,0-2.094.58,2.364,2.364,0,0,0-.77,1.526,1.739,1.739,0,0,0,.185.946c.185.183.37.58.585.763.37.183.77.366,1.324.58.585.183,1.14.366,2.094.58a15.062,15.062,0,0,1,2.495.763,8.052,8.052,0,0,1,1.725.946,5.887,5.887,0,0,1,.955,1.312,5.738,5.738,0,0,1,.37,1.892,6.756,6.756,0,0,1-.37,2.075,10.677,10.677,0,0,1-1.324,1.709,6.2,6.2,0,0,1-1.91.946C48.267,41.5,47.312,41.684,46.542,41.684Z" transform="translate(29.193 19.051)" fill="#082f33"/>
    <path id="Path_47" data-name="Path 47" d="M48.739,24.383H52l5.144,7.932,5.359-7.932h3.234V41.407H62.692v-12.3l-5.359,7.932h-.185l-5.329-7.932v12.3h-3.08Z" transform="translate(36.544 19.145)" fill="#082f33"/>
    <path id="Path_48" data-name="Path 48" d="M67.361,24.28h2.864L77.679,41.3H74.445L72.72,37.155H64.713L62.988,41.3H59.938Zm4.4,10.4-3.049-6.8-2.864,6.8Z" transform="translate(45.241 19.065)" fill="#082f33"/>
    <path id="Path_49" data-name="Path 49" d="M71.722,24.383H79.36a15.345,15.345,0,0,1,2.864.366,4.873,4.873,0,0,1,2.094,1.312,6.331,6.331,0,0,1,1.14,1.708,6.938,6.938,0,0,1,.37,2.075,6.86,6.86,0,0,1-.37,1.892c-.185.58-.585.946-.77,1.526a8.432,8.432,0,0,1-1.324,1.129,7.117,7.117,0,0,1-1.725.763l4.589,6.437H82.594l-4.189-5.858H74.586V41.59H71.537Zm7.454,8.329a3.54,3.54,0,0,0,2.495-.763,2.971,2.971,0,0,0,.955-2.075A2.916,2.916,0,0,0,81.67,27.8a4.368,4.368,0,0,0-2.68-.763h-4.4v5.675Z" transform="translate(54.248 19.145)" fill="#082f33"/>
    <path id="Path_50" data-name="Path 50" d="M86.426,27.037H80.882V24.383H94.834v2.654H89.29v14.37H86.241Z" transform="translate(61.505 19.145)" fill="#082f33"/>
    <path id="Path_51" data-name="Path 51" d="M102.962,41.777a7.535,7.535,0,0,1-3.45-.763,8.344,8.344,0,0,1-4.589-4.546,7.366,7.366,0,0,1-.585-3.417,10.353,10.353,0,0,1,.585-3.417,8.66,8.66,0,0,1,4.589-4.729,11.49,11.49,0,0,1,3.634-.763,7.317,7.317,0,0,1,2.094.183c.586.183,1.141.366,1.725.58.586.183.956.58,1.54.763.37.366.956.763,1.325,1.129l-1.91,2.258a8.8,8.8,0,0,0-2.095-1.526,6.386,6.386,0,0,0-2.68-.58,9.608,9.608,0,0,0-2.279.366,7.05,7.05,0,0,0-1.91,1.312,3.8,3.8,0,0,0-1.14,1.892,9.863,9.863,0,0,0-.37,2.258,9.35,9.35,0,0,0,.37,2.258,4.185,4.185,0,0,0,1.14,1.892,6.428,6.428,0,0,0,1.91,1.312,3.232,3.232,0,0,0,2.279.366,5.953,5.953,0,0,0,2.68-.58,8.1,8.1,0,0,0,2.279-1.709l1.91,1.892-1.325,1.312a6.96,6.96,0,0,1-1.54.946,5.817,5.817,0,0,1-1.91.58A2.888,2.888,0,0,1,102.962,41.777Z" transform="translate(71.919 18.958)" fill="#082f33"/>
    <path id="Path_52" data-name="Path 52" d="M104.858,24.383h2.866V31.37h8.224V24.383H119V41.407h-3.049v-7.2h-8.224v7.2h-2.866Z" transform="translate(80.125 19.145)" fill="#082f33"/>
    <path id="Path_53" data-name="Path 53" d="M121.973,24.28h2.864L132.291,41.3h-3.235l-1.723-4.149h-8.009L117.6,41.3H114.55Zm4.219,10.4-2.864-6.8-2.866,6.8Z" transform="translate(87.651 19.065)" fill="#082f33"/>
    <path id="Path_54" data-name="Path 54" d="M126.252,24.383h3.081V41.407h-3.081Z" transform="translate(96.739 19.145)" fill="#082f33"/>
    <path id="Path_55" data-name="Path 55" d="M130.552,24.383h2.679L142.409,36.1V24.383h3.05V41.407h-2.5l-9.332-12.112V41.407h-3.079Z" transform="translate(100.078 19.145)" fill="#082f33"/>
    <path id="Path_56" data-name="Path 56" d="M35.785,57.229v7.383l-6.5,3.783-6.314-3.783V57.229l6.314,3.783ZM1.012,31.693l6.314,3.783V48.137L18.2,54.574v7.383L1.012,51.92Zm56.549,0V51.951L40.189,61.988V54.6l10.872-6.437V35.506Zm-17.4-10.038,6.5,3.783v7.383L35.785,39.259V52.1l-6.314,3.783L23.188,52.1V39.228L11.915,32.791V25.408l6.5-3.783,10.873,6.437ZM11.915,38.1l6.314,3.783v7.383l-6.314-3.783Zm34.743,0v7.383l-6.314,3.783V41.883ZM7.326,15.218,13.825,19l-6.5,3.783v7.383L1.012,26.384V19Zm43.921,0L57.745,19v7.383l-6.5,3.783V22.784L44.933,19Zm-21.961,0L35.785,19l-6.5,3.783L22.972,19Zm0-12.661L46.657,12.594l-6.314,3.783L29.471,9.94,18.383,16.377l-6.314-3.783Z" transform="translate(-0.521 2.194)" fill="#082f33"/>
  </g>
</svg>
