<svg xmlns="http://www.w3.org/2000/svg" xmlns:xlink="http://www.w3.org/1999/xlink" width="242" height="74" viewBox="0 0 242 74">
  <defs>
    <clipPath id="clip-path">
      <rect id="Rectangle_37" data-name="Rectangle 37" width="242" height="74" transform="translate(-0.156 0)" fill="#fff"/>
    </clipPath>
  </defs>
  <g id="_2.9c8bb9c2" data-name="2.9c8bb9c2" transform="translate(0.156)" opacity="0.6" clip-path="url(#clip-path)">
    <path id="Path_19" data-name="Path 19" d="M47.2,26.718a13.2,13.2,0,0,1,3.492-9.493,13.053,13.053,0,0,1,9.162-4.191h.537c6.673,0,10.612,3.947,11.776,8.565l-4.148,1.395a7.308,7.308,0,0,0-7.628-5.763c-4.318,0-8.649,3.171-8.649,9.565s4.226,9.447,8.7,9.447a7.857,7.857,0,0,0,7.786-5.8l4.069,1.316a11.784,11.784,0,0,1-11.907,8.724,12.928,12.928,0,0,1-9.234-3.646,13.073,13.073,0,0,1-3.969-9.143C47.17,27.376,47.183,27.048,47.2,26.718Z" transform="translate(35.795 10.332)" fill="#082f33"/>
    <path id="Path_20" data-name="Path 20" d="M67.735,39.911H63.443V12.99h4.292V23.516a6.331,6.331,0,0,1,5.1-2.263c4.436,0,6.543,3.2,6.543,7.184V39.911H75.246V29.2a3.528,3.528,0,0,0-.662-2.577,3.49,3.49,0,0,0-2.269-1.37A3.851,3.851,0,0,0,67.8,29.016a2.753,2.753,0,0,0,0,.329Z" transform="translate(48.427 10.297)" fill="#082f33"/>
    <path id="Path_21" data-name="Path 21" d="M80.192,25.925,84.8,25.2c1.047-.132,1.309-.671,1.309-1.316,0-1.526-1.021-2.75-3.4-2.75a3.416,3.416,0,0,0-2.482.8,3.454,3.454,0,0,0-1.208,2.321v.2l-3.926-.882c.327-3.131,3.153-5.921,7.576-5.921,5.548,0,7.655,3.158,7.655,6.842v8.986a18.009,18.009,0,0,0,.222,2.908H86.617a10.585,10.585,0,0,1-.17-2.316A6.245,6.245,0,0,1,80.9,36.924,5.632,5.632,0,0,1,76.784,35.6,5.7,5.7,0,0,1,74.8,31.74v-.263C74.736,28.148,77.1,26.359,80.192,25.925Zm5.941,2.908V28l-4.7.71a2.467,2.467,0,0,0-1.689.746,2.494,2.494,0,0,0-.705,1.714,2.4,2.4,0,0,0,.739,1.7,2.374,2.374,0,0,0,1.721.659h.2a4.08,4.08,0,0,0,4.024-2.145,4.121,4.121,0,0,0,.465-1.54,4.256,4.256,0,0,0-.066-1.013Z" transform="translate(57.246 13.915)" fill="#082f33"/>
    <path id="Path_22" data-name="Path 22" d="M88.853,12.794a2.793,2.793,0,0,1,2,.8,2.8,2.8,0,0,1-.877,4.586,2.789,2.789,0,0,1-3.047-.593,2.824,2.824,0,0,1,.382-4.327,2.788,2.788,0,0,1,1.545-.494ZM86.759,40.162V21.978h4.292v18.1Z" transform="translate(66.015 10.125)" fill="#082f33"/>
    <path id="Path_23" data-name="Path 23" d="M96.255,36.289H91.977v-18.1h4.174v2.408a5.946,5.946,0,0,1,5.326-2.934c4.4,0,6.542,3.2,6.542,7.184V36.289H103.74V25.579c0-2.224-1.008-4.026-3.7-4.026a3.8,3.8,0,0,0-3.49,2.38,3.834,3.834,0,0,0-.279,1.462v.434Z" transform="translate(70.585 13.919)" fill="#082f33"/>
    <path id="Path_24" data-name="Path 24" d="M103.924,39.911V12.99h4.292v26.92Z" transform="translate(79.863 10.297)" fill="#082f33"/>
    <path id="Path_25" data-name="Path 25" d="M111.859,12.783a2.786,2.786,0,0,1,2.587,1.724,2.813,2.813,0,0,1-.6,3.06,2.788,2.788,0,0,1-4.758-1.995,2.826,2.826,0,0,1,.821-1.965A2.788,2.788,0,0,1,111.859,12.783Zm-2.105,27.368V21.967h4.251v18.1Z" transform="translate(83.872 10.136)" fill="#082f33"/>
    <path id="Path_26" data-name="Path 26" d="M119.269,36.289h-4.29v-18.1h4.173v2.408a5.957,5.957,0,0,1,5.326-2.934c4.4,0,6.541,3.2,6.541,7.184V36.289h-4.29V25.578A3.539,3.539,0,0,0,126.067,23a3.491,3.491,0,0,0-2.269-1.371,3.918,3.918,0,0,0-.785,0,3.784,3.784,0,0,0-2.658,1.132,3.826,3.826,0,0,0-1.1,2.684,2.489,2.489,0,0,0,0,.46Z" transform="translate(88.448 13.919)" fill="#082f33"/>
    <path id="Path_27" data-name="Path 27" d="M136.352,29.45,143.9,39.976h-5.234l-5.234-7.46-2.212,2.342v5.052H126.97V12.99h4.251V29.121l6.909-7.316h5.692Z" transform="translate(97.76 10.297)" fill="#082f33"/>
    <path id="Path_28" data-name="Path 28" d="M32.637,15.789,51.191,26.5V48.025L32.689,58.8,14.148,48.117V26.6ZM32.637,0l-6.8,3.947L7.3,14.763.5,18.71V56.038l6.8,3.947L25.859,70.7l6.8,3.947,6.8-3.947L57.956,59.906l6.8-3.947V18.578l-6.8-3.947L39.415,3.947,32.611,0Z" transform="translate(-0.454 0.209)" fill="#082f33"/>
  </g>
</svg>
