<svg xmlns="http://www.w3.org/2000/svg" xmlns:xlink="http://www.w3.org/1999/xlink" width="223.322" height="81.301" viewBox="0 0 223.322 81.301">
  <defs>
    <clipPath id="clip-path">
      <rect id="Rectangle_41" data-name="Rectangle 41" width="223.322" height="81.301" transform="translate(0)" fill="#fff"/>
    </clipPath>
  </defs>
  <g id="_9.1af2c278" data-name="9.1af2c278" opacity="0.6" clip-path="url(#clip-path)">
    <path id="Path_63" data-name="Path 63" d="M65.581,28.982A13.682,13.682,0,0,1,64.2,35.314,12.837,12.837,0,0,1,60.579,39.7a14.9,14.9,0,0,1-5.063,2.527,21.367,21.367,0,0,1-5.707.822H39.315V15.161H49.472a25.556,25.556,0,0,1,5.891.7,14.767,14.767,0,0,1,5.155,2.283,11.722,11.722,0,0,1,3.651,4.262A13.655,13.655,0,0,1,65.581,28.982Zm-7.057,0a8.728,8.728,0,0,0-.767-3.927A6.692,6.692,0,0,0,55.7,22.59a8.019,8.019,0,0,0-2.946-1.309,14.263,14.263,0,0,0-3.406-.4H45.974V37.2H49.2a13.822,13.822,0,0,0,3.529-.426,7.8,7.8,0,0,0,2.976-1.37,6.6,6.6,0,0,0,2.056-2.527A8.94,8.94,0,0,0,58.524,28.982Zm24.823,1.979a3.841,3.841,0,0,0-.982-2.649,3.7,3.7,0,0,0-2.915-1.1,4.921,4.921,0,0,0-1.749.3,4.386,4.386,0,0,0-2.332,2.009,3.457,3.457,0,0,0-.4,1.431Zm5.983,2.466v.791a6.544,6.544,0,0,1-.031.761H74.97a3.306,3.306,0,0,0,.491,1.492,3.888,3.888,0,0,0,1.074,1.157,5.193,5.193,0,0,0,1.473.761,5.293,5.293,0,0,0,1.688.274,5.458,5.458,0,0,0,2.608-.578,5.4,5.4,0,0,0,1.749-1.461l4.541,2.831a9.313,9.313,0,0,1-3.682,3.1,13.209,13.209,0,0,1-9.512.4,10.139,10.139,0,0,1-3.467-2.009A9.114,9.114,0,0,1,69.6,37.689a10.891,10.891,0,0,1-.859-4.414,11.105,11.105,0,0,1,.828-4.353A9.873,9.873,0,0,1,71.84,25.6a9.977,9.977,0,0,1,3.375-2.1,11.674,11.674,0,0,1,4.2-.761,10.684,10.684,0,0,1,4.019.731,8.459,8.459,0,0,1,3.13,2.1,10.2,10.2,0,0,1,2.056,3.349A13.313,13.313,0,0,1,89.33,33.427Zm26.327,1.461a7.551,7.551,0,0,1-.92,3.836,7.023,7.023,0,0,1-2.424,2.5,11.278,11.278,0,0,1-3.437,1.37,19,19,0,0,1-3.958.426H93.748V15.131h11.2a17.794,17.794,0,0,1,3.345.335,9.293,9.293,0,0,1,3.1,1.157,6.771,6.771,0,0,1,2.271,2.192,6.45,6.45,0,0,1,.89,3.5,5.786,5.786,0,0,1-1.258,3.836,7.065,7.065,0,0,1-3.345,2.192v.091a7.428,7.428,0,0,1,2.24.731A6.2,6.2,0,0,1,115.657,34.888Zm-7.7-11.69a2.2,2.2,0,0,0-1.1-2.07,6.538,6.538,0,0,0-3.222-.639h-3.345v5.753h3.651a4.839,4.839,0,0,0,2.946-.761A2.616,2.616,0,0,0,107.955,23.2Zm.921,11.051a2.45,2.45,0,0,0-1.319-2.4,7.519,7.519,0,0,0-3.5-.67h-3.774v6.393h3.8a10.169,10.169,0,0,0,1.657-.152,5.627,5.627,0,0,0,1.534-.487,3.009,3.009,0,0,0,1.135-1A3.123,3.123,0,0,0,108.876,34.249Zm22.583.213h-.828c-.706,0-1.442.03-2.148.091a9.873,9.873,0,0,0-1.933.365,3.32,3.32,0,0,0-1.412.822,1.85,1.85,0,0,0-.552,1.4,1.965,1.965,0,0,0,.246.944,2.14,2.14,0,0,0,.644.639,3.009,3.009,0,0,0,.92.335,5.345,5.345,0,0,0,.982.091,3.71,3.71,0,0,0,4.081-4.018Zm-11.967-8.4a11.183,11.183,0,0,1,4.081-2.466,14.077,14.077,0,0,1,4.756-.822,13.329,13.329,0,0,1,4.234.609,6.247,6.247,0,0,1,2.792,1.887A7.927,7.927,0,0,1,136.92,28.5a18.118,18.118,0,0,1,.491,4.627v9.894h-5.953v-2.1h-.123a4.879,4.879,0,0,1-2.271,1.887,8.265,8.265,0,0,1-3.314.67,9.512,9.512,0,0,1-2.455-.3,7.278,7.278,0,0,1-2.332-1.035,5.444,5.444,0,0,1-1.749-1.887,5.631,5.631,0,0,1-.675-2.923,5.028,5.028,0,0,1,1.166-3.44,7.687,7.687,0,0,1,3.007-2.009,15.821,15.821,0,0,1,4.112-.944,42.946,42.946,0,0,1,4.418-.244v-.3a2.335,2.335,0,0,0-1.043-2.131,4.475,4.475,0,0,0-2.547-.7,6.677,6.677,0,0,0-2.67.578,8.567,8.567,0,0,0-2.209,1.431Zm35.747,16.956V32.3a6.928,6.928,0,0,0-.153-1.583,4.75,4.75,0,0,0-.46-1.309,2.548,2.548,0,0,0-.89-.913,2.655,2.655,0,0,0-1.442-.335,3.406,3.406,0,0,0-1.534.335,2.82,2.82,0,0,0-1.074.913,3.756,3.756,0,0,0-.644,1.37,5.622,5.622,0,0,0-.215,1.583V42.986H142.29V23.381h6.321V26.09h.061a5.966,5.966,0,0,1,.921-1.248,5.488,5.488,0,0,1,1.35-1.035,6.812,6.812,0,0,1,1.687-.7,7.065,7.065,0,0,1,1.933-.274,7.556,7.556,0,0,1,3.376.7,6.23,6.23,0,0,1,2.24,1.827,6.733,6.733,0,0,1,1.227,2.588,11.517,11.517,0,0,1,.368,2.923V42.986Zm32.709,0h-8.07L173.4,33.61h-.121v9.407h-6.536V13.244h6.536V31.357h.121l6.322-7.945h7.916l-7.61,8.859Z" transform="translate(35.491 12.259)" fill="#082f33"/>
    <path id="Path_64" data-name="Path 64" d="M51.742,45.986A17.541,17.541,0,0,1,34.007,63.308H.5V51.74H34.007a5.784,5.784,0,1,0,0-11.568H22.193V28.634H34.007a5.784,5.784,0,1,0,0-11.568H.5V5.5H34.007A17.587,17.587,0,0,1,51.742,22.85a17.031,17.031,0,0,1-4.51,11.568A17.088,17.088,0,0,1,51.742,45.986Z" transform="translate(-0.439 5.089)" fill="#082f33" opacity="0.8"/>
    <path id="Path_65" data-name="Path 65" d="M.5,51.74H29.281c-6.106,7-15.833,11.568-26.787,11.568-.675,0-1.319-.03-1.964-.061C.5,63.277.5,51.74.5,51.74ZM35.3,40.172H24.157V28.634H35.3A25.266,25.266,0,0,1,35.3,40.172ZM29.281,17.066H.5V5.558c.644-.03,1.319-.061,1.964-.061C13.418,5.528,23.145,10.064,29.281,17.066Z" transform="translate(-0.439 5.089)" fill="#082f33" opacity="0.12"/>
    <path id="Path_66" data-name="Path 66" d="M.5,5.513c16.324,0,29.548,12.938,29.548,28.89S16.824,63.293.5,63.293V51.725A17.541,17.541,0,0,0,18.235,34.4,17.541,17.541,0,0,0,.5,17.082Z" transform="translate(-0.439 5.104)" fill="#082f33"/>
  </g>
</svg>
